<svg width="171" height="84" viewBox="0 0 171 84" fill="none" xmlns="http://www.w3.org/2000/svg">
<g filter="url(#filter0_d_55_1419)">
<rect x="21" y="10" width="129" height="42" rx="10" fill="url(#paint0_linear_55_1419)"/>
<path d="M44 22.875C39.5117 22.875 35.875 26.5117 35.875 31V32.5625C35.875 33.082 35.457 33.5 34.9375 33.5C34.418 33.5 34 33.082 34 32.5625V31C34 25.4766 38.4766 21 44 21C49.5234 21 54 25.4766 54 31V36.6289C54 38.5273 52.4609 40.0664 50.5586 40.0664L46.25 40.0625C45.9258 40.6211 45.3203 41 44.625 41H43.375C42.3398 41 41.5 40.1602 41.5 39.125C41.5 38.0898 42.3398 37.25 43.375 37.25H44.625C45.3203 37.25 45.9258 37.6289 46.25 38.1875L50.5625 38.1914C51.4258 38.1914 52.125 37.4922 52.125 36.6289V31C52.125 26.5117 48.4883 22.875 44 22.875ZM39.625 29.125H40.25C40.9414 29.125 41.5 29.6836 41.5 30.375V34.75C41.5 35.4414 40.9414 36 40.25 36H39.625C38.2461 36 37.125 34.8789 37.125 33.5V31.625C37.125 30.2461 38.2461 29.125 39.625 29.125ZM48.375 29.125C49.7539 29.125 50.875 30.2461 50.875 31.625V33.5C50.875 34.8789 49.7539 36 48.375 36H47.75C47.0586 36 46.5 35.4414 46.5 34.75V30.375C46.5 29.6836 47.0586 29.125 47.75 29.125H48.375Z" fill="white"/>
<path d="M72.4055 27.5078C72.3459 26.9496 72.0945 26.5149 71.6513 26.2038C71.2124 25.8928 70.6413 25.7372 69.9382 25.7372C69.4439 25.7372 69.0199 25.8118 68.6662 25.9609C68.3125 26.1101 68.0419 26.3125 67.8544 26.5682C67.6669 26.8239 67.571 27.1158 67.5668 27.4439C67.5668 27.7166 67.6286 27.9531 67.7521 28.1534C67.88 28.3537 68.0526 28.5241 68.2699 28.6648C68.4872 28.8011 68.728 28.9162 68.9922 29.0099C69.2564 29.1037 69.5227 29.1825 69.7912 29.2464L71.0185 29.5533C71.5128 29.6683 71.9879 29.8239 72.4439 30.0199C72.9041 30.2159 73.3153 30.4631 73.6776 30.7614C74.044 31.0597 74.3338 31.4197 74.5469 31.8416C74.7599 32.2635 74.8665 32.7578 74.8665 33.3246C74.8665 34.0916 74.6705 34.767 74.2784 35.3509C73.8864 35.9304 73.3196 36.3842 72.5781 36.7124C71.8409 37.0362 70.9482 37.1982 69.8999 37.1982C68.8814 37.1982 67.9972 37.0405 67.2472 36.7251C66.5014 36.4098 65.9176 35.9496 65.4957 35.3445C65.0781 34.7393 64.8523 34.0021 64.8182 33.1328H67.1513C67.1854 33.5888 67.326 33.968 67.5732 34.2706C67.8203 34.5732 68.142 34.799 68.5384 34.9482C68.9389 35.0973 69.3864 35.1719 69.8807 35.1719C70.3963 35.1719 70.848 35.0952 71.2358 34.9418C71.6278 34.7841 71.9347 34.5668 72.1562 34.2898C72.3778 34.0085 72.4908 33.6804 72.495 33.3054C72.4908 32.9645 72.3906 32.6832 72.1946 32.4616C71.9986 32.2358 71.7237 32.0483 71.37 31.8991C71.0206 31.7457 70.6115 31.6094 70.1428 31.4901L68.6534 31.1065C67.5753 30.8295 66.723 30.4098 66.0966 29.8473C65.4744 29.2805 65.1634 28.5284 65.1634 27.5909C65.1634 26.8196 65.3722 26.1442 65.7898 25.5646C66.2116 24.9851 66.7848 24.5355 67.5092 24.2159C68.2337 23.892 69.054 23.7301 69.9702 23.7301C70.8991 23.7301 71.7131 23.892 72.4119 24.2159C73.1151 24.5355 73.6669 24.9808 74.0675 25.5518C74.468 26.1186 74.6747 26.7706 74.6875 27.5078H72.4055ZM83.1362 32.8707V27.1818H85.4501V37H83.2065V35.255H83.1042C82.8826 35.8047 82.5183 36.2543 82.0112 36.6037C81.5083 36.9531 80.8883 37.1278 80.1511 37.1278C79.5076 37.1278 78.9387 36.9851 78.4444 36.6996C77.9544 36.4098 77.5708 35.9901 77.2939 35.4403C77.0169 34.8864 76.8784 34.2173 76.8784 33.4332V27.1818H79.1923V33.0753C79.1923 33.6974 79.3627 34.1918 79.7037 34.5582C80.0446 34.9247 80.492 35.108 81.046 35.108C81.3869 35.108 81.7172 35.0249 82.0368 34.8587C82.3564 34.6925 82.6184 34.4453 82.823 34.1172C83.0318 33.7848 83.1362 33.3693 83.1362 32.8707ZM87.8295 40.6818V27.1818H90.1051V28.8054H90.2393C90.3587 28.5668 90.527 28.3132 90.7443 28.0447C90.9616 27.772 91.2557 27.5398 91.6264 27.348C91.9972 27.152 92.4702 27.054 93.0455 27.054C93.804 27.054 94.4879 27.2479 95.0973 27.6357C95.7109 28.0192 96.1967 28.5881 96.5547 29.3423C96.9169 30.0923 97.098 31.0128 97.098 32.1037C97.098 33.1818 96.9212 34.098 96.5675 34.8523C96.2138 35.6065 95.7322 36.1818 95.1229 36.5781C94.5135 36.9744 93.8232 37.1726 93.0518 37.1726C92.4893 37.1726 92.0227 37.0788 91.652 36.8913C91.2813 36.7038 90.983 36.478 90.7571 36.2138C90.5355 35.9453 90.3629 35.6918 90.2393 35.4531H90.1435V40.6818H87.8295ZM90.0987 32.0909C90.0987 32.7259 90.1882 33.282 90.3672 33.7592C90.5504 34.2365 90.8125 34.6094 91.1534 34.8778C91.4986 35.142 91.9162 35.2741 92.4062 35.2741C92.9176 35.2741 93.3459 35.1378 93.6911 34.8651C94.0362 34.5881 94.2962 34.2109 94.4709 33.7337C94.6499 33.2521 94.7393 32.7045 94.7393 32.0909C94.7393 31.4815 94.652 30.9403 94.4773 30.4673C94.3026 29.9943 94.0426 29.6236 93.6974 29.3551C93.3523 29.0866 92.9219 28.9524 92.4062 28.9524C91.9119 28.9524 91.4922 29.0824 91.147 29.3423C90.8018 29.6023 90.5398 29.9666 90.3608 30.4354C90.1861 30.9041 90.0987 31.456 90.0987 32.0909ZM99.0795 40.6818V27.1818H101.355V28.8054H101.489C101.609 28.5668 101.777 28.3132 101.994 28.0447C102.212 27.772 102.506 27.5398 102.876 27.348C103.247 27.152 103.72 27.054 104.295 27.054C105.054 27.054 105.738 27.2479 106.347 27.6357C106.961 28.0192 107.447 28.5881 107.805 29.3423C108.167 30.0923 108.348 31.0128 108.348 32.1037C108.348 33.1818 108.171 34.098 107.817 34.8523C107.464 35.6065 106.982 36.1818 106.373 36.5781C105.763 36.9744 105.073 37.1726 104.302 37.1726C103.739 37.1726 103.273 37.0788 102.902 36.8913C102.531 36.7038 102.233 36.478 102.007 36.2138C101.786 35.9453 101.613 35.6918 101.489 35.4531H101.393V40.6818H99.0795ZM101.349 32.0909C101.349 32.7259 101.438 33.282 101.617 33.7592C101.8 34.2365 102.063 34.6094 102.403 34.8778C102.749 35.142 103.166 35.2741 103.656 35.2741C104.168 35.2741 104.596 35.1378 104.941 34.8651C105.286 34.5881 105.546 34.2109 105.721 33.7337C105.9 33.2521 105.989 32.7045 105.989 32.0909C105.989 31.4815 105.902 30.9403 105.727 30.4673C105.553 29.9943 105.293 29.6236 104.947 29.3551C104.602 29.0866 104.172 28.9524 103.656 28.9524C103.162 28.9524 102.742 29.0824 102.397 29.3423C102.052 29.6023 101.79 29.9666 101.611 30.4354C101.436 30.9041 101.349 31.456 101.349 32.0909ZM114.612 37.1918C113.653 37.1918 112.822 36.9808 112.119 36.5589C111.416 36.1371 110.871 35.5469 110.483 34.7884C110.099 34.0298 109.908 33.1435 109.908 32.1293C109.908 31.1151 110.099 30.2266 110.483 29.4638C110.871 28.701 111.416 28.1087 112.119 27.6868C112.822 27.2649 113.653 27.054 114.612 27.054C115.571 27.054 116.402 27.2649 117.105 27.6868C117.808 28.1087 118.352 28.701 118.735 29.4638C119.123 30.2266 119.317 31.1151 119.317 32.1293C119.317 33.1435 119.123 34.0298 118.735 34.7884C118.352 35.5469 117.808 36.1371 117.105 36.5589C116.402 36.9808 115.571 37.1918 114.612 37.1918ZM114.625 35.3381C115.145 35.3381 115.58 35.1953 115.929 34.9098C116.278 34.62 116.538 34.2322 116.709 33.7464C116.884 33.2607 116.971 32.7195 116.971 32.1229C116.971 31.522 116.884 30.9787 116.709 30.4929C116.538 30.0028 116.278 29.6129 115.929 29.3232C115.58 29.0334 115.145 28.8885 114.625 28.8885C114.092 28.8885 113.649 29.0334 113.295 29.3232C112.946 29.6129 112.684 30.0028 112.509 30.4929C112.339 30.9787 112.254 31.522 112.254 32.1229C112.254 32.7195 112.339 33.2607 112.509 33.7464C112.684 34.2322 112.946 34.62 113.295 34.9098C113.649 35.1953 114.092 35.3381 114.625 35.3381ZM121.281 37V27.1818H123.524V28.8182H123.627C123.806 28.2514 124.112 27.8146 124.547 27.5078C124.986 27.1967 125.487 27.0412 126.049 27.0412C126.177 27.0412 126.32 27.0476 126.477 27.0604C126.639 27.0689 126.774 27.0838 126.88 27.1051V29.2337C126.782 29.1996 126.627 29.1697 126.414 29.1442C126.205 29.1143 126.002 29.0994 125.806 29.0994C125.384 29.0994 125.005 29.1911 124.669 29.3743C124.336 29.5533 124.074 29.8026 123.882 30.1222C123.691 30.4418 123.595 30.8104 123.595 31.228V37H121.281ZM133.847 27.1818V28.9716H128.203V27.1818H133.847ZM129.597 24.8295H131.911V34.0469C131.911 34.358 131.958 34.5966 132.051 34.7628C132.149 34.9247 132.277 35.0355 132.435 35.0952C132.593 35.1548 132.767 35.1847 132.959 35.1847C133.104 35.1847 133.236 35.174 133.355 35.1527C133.479 35.1314 133.573 35.1122 133.637 35.0952L134.026 36.9041C133.903 36.9467 133.726 36.9936 133.496 37.0447C133.27 37.0959 132.993 37.1257 132.665 37.1342C132.085 37.1513 131.563 37.0639 131.099 36.8722C130.634 36.6761 130.266 36.3736 129.993 35.9645C129.725 35.5554 129.593 35.044 129.597 34.4304V24.8295Z" fill="white"/>
</g>
<defs>
<filter id="filter0_d_55_1419" x="0" y="0" width="171" height="84" filterUnits="userSpaceOnUse" color-interpolation-filters="sRGB">
<feFlood flood-opacity="0" result="BackgroundImageFix"/>
<feColorMatrix in="SourceAlpha" type="matrix" values="0 0 0 0 0 0 0 0 0 0 0 0 0 0 0 0 0 0 127 0" result="hardAlpha"/>
<feOffset dy="11"/>
<feGaussianBlur stdDeviation="10.5"/>
<feComposite in2="hardAlpha" operator="out"/>
<feColorMatrix type="matrix" values="0 0 0 0 0.219608 0 0 0 0 0.67451 0 0 0 0 0.917647 0 0 0 0.18 0"/>
<feBlend mode="normal" in2="BackgroundImageFix" result="effect1_dropShadow_55_1419"/>
<feBlend mode="normal" in="SourceGraphic" in2="effect1_dropShadow_55_1419" result="shape"/>
</filter>
<linearGradient id="paint0_linear_55_1419" x1="21" y1="31" x2="150" y2="31" gradientUnits="userSpaceOnUse">
<stop stop-color="#0099FF"/>
<stop offset="1" stop-color="#3DD4FF"/>
</linearGradient>
</defs>
</svg>
