<svg width="84" height="84" viewBox="0 0 84 84" fill="none" xmlns="http://www.w3.org/2000/svg">
<g filter="url(#filter0_d_55_1423)">
<rect x="21" y="10" width="42" height="42" rx="10" fill="url(#paint0_linear_55_1423)"/>
<path d="M33.1898 29.9377C33.1898 29.9377 41.7745 26.3224 44.7522 25.0494C45.8933 24.54 49.7639 22.9106 49.7639 22.9106C49.7639 22.9106 51.5498 22.1977 51.4016 23.9283C51.351 24.6412 50.9545 27.1365 50.558 29.8353C49.9627 33.6553 49.3169 37.8306 49.3169 37.8306C49.3169 37.8306 49.218 39.0024 48.3745 39.2071C47.531 39.4094 46.1416 38.493 45.8933 38.2894C45.6945 38.1365 42.1722 35.8447 40.8816 34.7247C40.5345 34.4189 40.1369 33.8071 40.931 33.0953C42.7 31.4308 44.4371 29.7329 46.1416 28.0024C46.7369 27.3906 47.3322 25.9659 44.851 27.6965C41.3298 30.1918 37.8545 32.5353 37.8545 32.5353C37.8545 32.5353 37.0604 33.0436 35.5722 32.5859C34.0839 32.1271 32.3463 31.5153 32.3463 31.5153C32.3463 31.5153 31.1557 30.753 33.1898 29.9377Z" fill="white"/>
</g>
<defs>
<filter id="filter0_d_55_1423" x="0" y="0" width="84" height="84" filterUnits="userSpaceOnUse" color-interpolation-filters="sRGB">
<feFlood flood-opacity="0" result="BackgroundImageFix"/>
<feColorMatrix in="SourceAlpha" type="matrix" values="0 0 0 0 0 0 0 0 0 0 0 0 0 0 0 0 0 0 127 0" result="hardAlpha"/>
<feOffset dy="11"/>
<feGaussianBlur stdDeviation="10.5"/>
<feComposite in2="hardAlpha" operator="out"/>
<feColorMatrix type="matrix" values="0 0 0 0 0.219608 0 0 0 0 0.67451 0 0 0 0 0.917647 0 0 0 0.18 0"/>
<feBlend mode="normal" in2="BackgroundImageFix" result="effect1_dropShadow_55_1423"/>
<feBlend mode="normal" in="SourceGraphic" in2="effect1_dropShadow_55_1423" result="shape"/>
</filter>
<linearGradient id="paint0_linear_55_1423" x1="21" y1="31" x2="63" y2="31" gradientUnits="userSpaceOnUse">
<stop stop-color="#3DD4FF"/>
<stop offset="1" stop-color="#0099FF"/>
</linearGradient>
</defs>
</svg>
