<svg width="14" height="102" viewBox="0 0 14 102" fill="none" xmlns="http://www.w3.org/2000/svg">
<path d="M546 23C546 10.2975 535.703 0 523 0H390.509C388.151 0 385.835 0.618347 383.791 1.79331L383.344 2.05078C379.339 4.35279 374.397 4.28121 370.462 1.86422C368.477 0.645269 366.193 0 363.864 0H184.241C181.786 0 179.37 0.611078 177.211 1.77811L176.448 2.1904C172.324 4.41894 167.331 4.3058 163.312 1.89279C161.25 0.654277 158.889 0 156.483 0H3C1.34314 0 0 1.34315 0 3V5.49419C0 6.1027 0.18689 6.6955 0.501221 7.21651C1.2489 8.45576 2.5694 10.9187 2.5694 12.8571C2.5694 14.7955 1.2489 17.2585 0.501221 18.4978C0.18689 19.0188 0 19.6116 0 20.2201V25.2854C0 25.5656 0.0795288 25.84 0.229309 26.0767L0.368347 26.2964C2.62775 29.8666 2.62775 34.4191 0.368347 37.9893C0.127747 38.3696 0 38.8103 0 39.2603V44.3326C0 44.7686 0.123779 45.1956 0.356934 45.564L0.550171 45.8693C2.68665 49.2454 2.61835 53.567 0.37616 56.8738C0.131042 57.2353 0 57.6621 0 58.0988V62.7809C0 63.2035 0.123291 63.6169 0.354736 63.9705L0.550781 64.2699C2.67432 67.5136 2.60443 71.7246 0.37439 74.8962C0.130737 75.2426 0 75.6559 0 76.0794V81.7986C0 82.2586 0.117737 82.7108 0.341919 83.1124L1.70892 85.5605C3.15533 88.1509 3.0174 91.3355 1.35242 93.7911C0.47113 95.0909 0 96.6252 0 98.1956V99.753C0 100.994 1.00604 102 2.24701 102H156.592C158.94 102 161.256 101.464 163.365 100.432C167.442 98.4369 172.193 98.3413 176.347 100.171L177.164 100.53C179.365 101.5 181.743 102 184.148 102H363.972C366.243 102 368.483 101.471 370.515 100.454C374.514 98.4531 379.209 98.3924 383.259 100.29L383.742 100.515C385.829 101.493 388.105 102 390.41 102H523C535.703 102 546 91.7026 546 79V23Z" fill="url(#paint0_radial_2066_165)"/>
<defs>
<radialGradient id="paint0_radial_2066_165" cx="0" cy="0" r="1" gradientUnits="userSpaceOnUse" gradientTransform="translate(73.4423 51) rotate(-180) scale(73.4423 60.3726)">
<stop stop-color="#3DD4FF"/>
<stop offset="1" stop-color="#0098EA"/>
</radialGradient>
</defs>
</svg>
