<svg width="11" height="102" viewBox="0 0 11 102" fill="none" xmlns="http://www.w3.org/2000/svg">
<path d="M-513 0.5H-380.223C-377.949 0.500021 -375.714 1.0958 -373.742 2.22754L-373.294 2.48535C-369.123 4.87866 -363.978 4.80399 -359.879 2.29102C-357.969 1.12006 -355.772 0.500028 -353.531 0.5H-173.577C-171.202 0.500071 -168.863 1.0909 -166.772 2.21875L-166.008 2.63086C-161.721 4.94333 -156.532 4.82634 -152.354 2.32227C-150.365 1.13005 -148.09 0.5 -145.771 0.5H8C9.38072 0.5 10.5 1.61929 10.5 3V5.49316C10.4999 5.99953 10.3438 6.50494 10.0693 6.95898C9.68766 7.59051 9.15675 8.53877 8.71973 9.58203C8.28648 10.6163 7.92578 11.7895 7.92578 12.8574C7.92584 13.9252 8.28656 15.0977 8.71973 16.1318C9.15683 17.1753 9.68763 18.1243 10.0693 18.7559C10.3438 19.21 10.5 19.7152 10.5 20.2217V25.2852C10.5 25.4706 10.4469 25.652 10.3477 25.8086L10.209 26.0283C7.84246 29.761 7.84252 34.5241 10.209 38.2568C10.3992 38.5569 10.5 38.9055 10.5 39.2607V44.332C10.5 44.6732 10.4033 45.0078 10.2207 45.2959H10.2197L10.0264 45.6016C7.78 49.1451 7.85239 53.6846 10.21 57.1553C10.3989 57.4336 10.4999 57.7623 10.5 58.0986V62.7803C10.5 63.1055 10.4049 63.4243 10.2266 63.6963L10.0303 63.9951C7.79077 67.4097 7.86417 71.8462 10.2158 75.1846C10.4004 75.4467 10.5 75.7595 10.5 76.0801V81.7988C10.4999 82.1732 10.4035 82.5414 10.2207 82.8682L8.85254 85.3154C7.31115 88.0709 7.45749 91.4605 9.23145 94.0723C10.0578 95.2888 10.5 96.7257 10.5 98.1963V99.7549C10.5 100.719 9.71855 101.5 8.75488 101.5H-145.88C-148.155 101.5 -150.401 100.981 -152.445 99.9824C-156.663 97.9227 -161.574 97.8242 -165.871 99.7129L-166.689 100.072C-168.831 101.014 -171.145 101.5 -173.484 101.5H-353.64C-355.837 101.5 -358.004 100.989 -359.97 100.007C-364.114 97.9371 -368.977 97.8739 -373.173 99.8359L-373.656 100.062C-375.681 101.009 -377.889 101.5 -380.124 101.5H-513C-525.426 101.5 -535.5 91.4264 -535.5 79V23C-535.5 10.5736 -525.426 0.5 -513 0.5Z" fill="url(#paint0_radial_2066_158)" stroke="#01A4F5"/>
<defs>
<radialGradient id="paint0_radial_2066_158" cx="0" cy="0" r="1" gradientUnits="userSpaceOnUse" gradientTransform="translate(-66.6525 51) scale(77.6525 63.7169)">
<stop stop-color="#3DD4FF"/>
<stop offset="1" stop-color="#0098EA"/>
</radialGradient>
</defs>
</svg>
