<svg width="207" height="45" viewBox="0 0 207 45" fill="none" xmlns="http://www.w3.org/2000/svg">
<g filter="url(#filter0_i_55_1538)">
<rect width="207" height="45" rx="12" fill="#0098EA"/>
<path d="M41.9386 20.0352C41.8822 19.5079 41.6448 19.0974 41.2262 18.8036C40.8117 18.5098 40.2724 18.3629 39.6083 18.3629C39.1415 18.3629 38.741 18.4334 38.407 18.5742C38.0729 18.7151 37.8174 18.9062 37.6403 19.1477C37.4632 19.3892 37.3726 19.6649 37.3686 19.9748C37.3686 20.2324 37.427 20.4557 37.5437 20.6449C37.6644 20.834 37.8274 20.995 38.0327 21.1278C38.2379 21.2566 38.4653 21.3653 38.7148 21.4538C38.9644 21.5424 39.2159 21.6168 39.4695 21.6772L40.6286 21.967C41.0954 22.0756 41.5442 22.2225 41.9748 22.4077C42.4094 22.5928 42.7978 22.8262 43.1399 23.108C43.486 23.3897 43.7597 23.7298 43.9609 24.1282C44.1622 24.5266 44.2628 24.9935 44.2628 25.5288C44.2628 26.2532 44.0777 26.8911 43.7074 27.4425C43.3371 27.9898 42.8018 28.4184 42.1016 28.7283C41.4053 29.0342 40.5621 29.1871 39.5721 29.1871C38.6102 29.1871 37.7751 29.0382 37.0668 28.7404C36.3625 28.4426 35.8111 28.0079 35.4126 27.4364C35.0182 26.8649 34.8049 26.1687 34.7727 25.3477H36.9762C37.0084 25.7783 37.1412 26.1365 37.3746 26.4222C37.6081 26.708 37.9119 26.9213 38.2862 27.0621C38.6645 27.203 39.0871 27.2734 39.554 27.2734C40.041 27.2734 40.4676 27.201 40.8338 27.0561C41.2041 26.9072 41.4938 26.7019 41.7031 26.4403C41.9124 26.1747 42.0191 25.8648 42.0231 25.5107C42.0191 25.1887 41.9245 24.9231 41.7393 24.7138C41.5542 24.5005 41.2946 24.3234 40.9606 24.1825C40.6306 24.0376 40.2442 23.9089 39.8015 23.7962L38.3949 23.4339C37.3767 23.1723 36.5717 22.7759 35.9801 22.2447C35.3925 21.7094 35.0987 20.9991 35.0987 20.1136C35.0987 19.3852 35.2959 18.7473 35.6903 18.1999C36.0888 17.6526 36.6301 17.228 37.3143 16.9261C37.9985 16.6203 38.7732 16.4673 39.6385 16.4673C40.5159 16.4673 41.2846 16.6203 41.9446 16.9261C42.6087 17.228 43.1299 17.6486 43.5082 18.1879C43.8865 18.7231 44.0817 19.3389 44.0938 20.0352H41.9386ZM50.7932 19.7273V21.4176H45.4626V19.7273H50.7932ZM46.7787 17.5057H48.964V26.2109C48.964 26.5047 49.0083 26.7301 49.0969 26.8871C49.1894 27.04 49.3102 27.1446 49.4591 27.201C49.608 27.2573 49.773 27.2855 49.9541 27.2855C50.0909 27.2855 50.2157 27.2754 50.3284 27.2553C50.4451 27.2352 50.5336 27.2171 50.594 27.201L50.9623 28.9094C50.8456 28.9497 50.6785 28.994 50.4612 29.0423C50.2479 29.0906 49.9863 29.1187 49.6764 29.1268C49.1291 29.1429 48.636 29.0604 48.1974 28.8793C47.7587 28.6941 47.4105 28.4084 47.153 28.022C46.8994 27.6357 46.7747 27.1527 46.7787 26.5732V17.5057ZM55.2892 29.1871C54.7016 29.1871 54.1724 29.0825 53.7015 28.8732C53.2347 28.6599 52.8644 28.346 52.5907 27.9315C52.3211 27.5169 52.1863 27.0058 52.1863 26.3981C52.1863 25.8749 52.2828 25.4422 52.476 25.1001C52.6692 24.758 52.9328 24.4844 53.2669 24.2791C53.6009 24.0739 53.9772 23.9189 54.3958 23.8143C54.8184 23.7056 55.255 23.6271 55.7058 23.5788C56.2491 23.5225 56.6898 23.4722 57.0279 23.4279C57.3659 23.3796 57.6114 23.3072 57.7644 23.2106C57.9213 23.11 57.9998 22.955 57.9998 22.7457V22.7095C57.9998 22.2547 57.865 21.9026 57.5953 21.6531C57.3257 21.4035 56.9373 21.2788 56.4302 21.2788C55.8949 21.2788 55.4703 21.3955 55.1564 21.6289C54.8465 21.8623 54.6373 22.138 54.5286 22.456L52.4881 22.1662C52.6491 21.6027 52.9147 21.1319 53.285 20.7536C53.6552 20.3712 54.108 20.0855 54.6433 19.8963C55.1786 19.7031 55.7702 19.6065 56.4181 19.6065C56.8649 19.6065 57.3096 19.6589 57.7523 19.7635C58.195 19.8681 58.5995 20.0412 58.9657 20.2827C59.332 20.5201 59.6258 20.8441 59.8471 21.2546C60.0725 21.6651 60.1852 22.1783 60.1852 22.794V29H58.0843V27.7262H58.0119C57.8791 27.9838 57.6919 28.2253 57.4505 28.4506C57.213 28.672 56.9132 28.8511 56.551 28.9879C56.1928 29.1207 55.7722 29.1871 55.2892 29.1871ZM55.8567 27.5813C56.2954 27.5813 56.6757 27.4948 56.9977 27.3217C57.3197 27.1446 57.5672 26.9112 57.7402 26.6214C57.9173 26.3317 58.0059 26.0157 58.0059 25.6737V24.581C57.9374 24.6373 57.8207 24.6896 57.6557 24.7379C57.4947 24.7862 57.3136 24.8285 57.1124 24.8647C56.9112 24.9009 56.7119 24.9331 56.5147 24.9613C56.3175 24.9895 56.1465 25.0136 56.0016 25.0337C55.6756 25.078 55.3838 25.1504 55.1262 25.2511C54.8687 25.3517 54.6654 25.4925 54.5165 25.6737C54.3676 25.8507 54.2931 26.0801 54.2931 26.3619C54.2931 26.7643 54.44 27.0682 54.7338 27.2734C55.0276 27.4787 55.4019 27.5813 55.8567 27.5813ZM62.3826 29V19.7273H64.5016V21.2727H64.5982C64.7672 20.7375 65.057 20.3249 65.4675 20.0352C65.882 19.7414 66.3549 19.5945 66.8862 19.5945C67.0069 19.5945 67.1417 19.6005 67.2907 19.6126C67.4436 19.6206 67.5704 19.6347 67.671 19.6548V21.6651C67.5784 21.6329 67.4315 21.6048 67.2303 21.5806C67.0331 21.5524 66.8419 21.5384 66.6568 21.5384C66.2583 21.5384 65.9002 21.6249 65.5822 21.7979C65.2683 21.967 65.0208 22.2024 64.8397 22.5043C64.6586 22.8061 64.568 23.1542 64.568 23.5487V29H62.3826ZM74.2512 19.7273V21.4176H68.9206V19.7273H74.2512ZM70.2367 17.5057H72.4221V26.2109C72.4221 26.5047 72.4663 26.7301 72.5549 26.8871C72.6474 27.04 72.7682 27.1446 72.9171 27.201C73.066 27.2573 73.231 27.2855 73.4121 27.2855C73.5489 27.2855 73.6737 27.2754 73.7864 27.2553C73.9031 27.2352 73.9917 27.2171 74.052 27.201L74.4203 28.9094C74.3036 28.9497 74.1365 28.994 73.9192 29.0423C73.7059 29.0906 73.4443 29.1187 73.1344 29.1268C72.5871 29.1429 72.094 29.0604 71.6554 28.8793C71.2167 28.6941 70.8685 28.4084 70.611 28.022C70.3574 27.6357 70.2327 27.1527 70.2367 26.5732V17.5057ZM82.632 16.6364V29H80.3923V16.6364H82.632ZM87.1461 23.5668V29H84.9608V19.7273H87.0495V21.3029H87.1582C87.3715 20.7837 87.7116 20.3712 88.1784 20.0653C88.6493 19.7595 89.2309 19.6065 89.9231 19.6065C90.563 19.6065 91.1204 19.7434 91.5953 20.017C92.0743 20.2907 92.4445 20.6871 92.7061 21.2063C92.9718 21.7255 93.1026 22.3554 93.0985 23.0959V29H90.9132V23.4339C90.9132 22.8142 90.7522 22.3292 90.4302 21.979C90.1123 21.6289 89.6716 21.4538 89.1081 21.4538C88.7258 21.4538 88.3857 21.5384 88.0879 21.7074C87.7941 21.8724 87.5627 22.1119 87.3936 22.4258C87.2286 22.7397 87.1461 23.12 87.1461 23.5668ZM103.271 19.7273L99.9686 29H97.5538L94.2516 19.7273H96.5819L98.7129 26.6154H98.8095L100.947 19.7273H103.271ZM108.573 29.1811C107.643 29.1811 106.84 28.9879 106.164 28.6016C105.492 28.2112 104.975 27.6598 104.612 26.9474C104.25 26.2311 104.069 25.3879 104.069 24.418C104.069 23.4641 104.25 22.627 104.612 21.9066C104.979 21.1822 105.49 20.6187 106.146 20.2163C106.802 19.8098 107.573 19.6065 108.458 19.6065C109.03 19.6065 109.569 19.6991 110.076 19.8842C110.587 20.0653 111.038 20.3471 111.428 20.7294C111.823 21.1117 112.132 21.5987 112.358 22.1903C112.583 22.7779 112.696 23.4782 112.696 24.2912V24.9613H105.095V23.4883H110.601C110.597 23.0697 110.507 22.6974 110.329 22.3714C110.152 22.0414 109.905 21.7818 109.587 21.5927C109.273 21.4035 108.907 21.3089 108.488 21.3089C108.041 21.3089 107.649 21.4176 107.311 21.6349C106.973 21.8482 106.709 22.13 106.52 22.4801C106.335 22.8262 106.24 23.2066 106.236 23.6211V24.907C106.236 25.4463 106.335 25.9091 106.532 26.2955C106.729 26.6778 107.005 26.9716 107.359 27.1768C107.713 27.3781 108.128 27.4787 108.603 27.4787C108.921 27.4787 109.209 27.4344 109.466 27.3459C109.724 27.2533 109.947 27.1185 110.136 26.9414C110.325 26.7643 110.468 26.545 110.565 26.2834L112.605 26.5128C112.477 27.0521 112.231 27.523 111.869 27.9254C111.511 28.3239 111.052 28.6338 110.492 28.8551C109.933 29.0724 109.293 29.1811 108.573 29.1811ZM121.874 22.1783L119.881 22.3956C119.825 22.1944 119.726 22.0052 119.586 21.8281C119.449 21.651 119.264 21.5082 119.03 21.3995C118.797 21.2908 118.511 21.2365 118.173 21.2365C117.718 21.2365 117.336 21.3351 117.026 21.5323C116.72 21.7295 116.569 21.9851 116.573 22.299C116.569 22.5687 116.668 22.788 116.869 22.957C117.074 23.1261 117.412 23.2649 117.883 23.3736L119.465 23.7116C120.342 23.9008 120.994 24.2006 121.421 24.6112C121.851 25.0217 122.069 25.5589 122.073 26.223C122.069 26.8066 121.898 27.3217 121.56 27.7685C121.226 28.2112 120.761 28.5573 120.165 28.8068C119.569 29.0563 118.885 29.1811 118.113 29.1811C116.978 29.1811 116.064 28.9437 115.372 28.4688C114.68 27.9898 114.267 27.3237 114.134 26.4705L116.265 26.2653C116.362 26.6838 116.567 26.9998 116.881 27.2131C117.195 27.4264 117.603 27.533 118.107 27.533C118.626 27.533 119.042 27.4264 119.356 27.2131C119.674 26.9998 119.833 26.7362 119.833 26.4222C119.833 26.1566 119.73 25.9373 119.525 25.7642C119.324 25.5911 119.01 25.4583 118.583 25.3658L117.002 25.0337C116.112 24.8486 115.454 24.5367 115.028 24.098C114.601 23.6553 114.39 23.0959 114.394 22.4197C114.39 21.8482 114.545 21.3532 114.859 20.9347C115.177 20.5121 115.617 20.1861 116.181 19.9567C116.748 19.7232 117.402 19.6065 118.143 19.6065C119.229 19.6065 120.085 19.8379 120.708 20.3008C121.336 20.7636 121.725 21.3894 121.874 22.1783ZM128.505 19.7273V21.4176H123.175V19.7273H128.505ZM124.491 17.5057H126.676V26.2109C126.676 26.5047 126.72 26.7301 126.809 26.8871C126.901 27.04 127.022 27.1446 127.171 27.201C127.32 27.2573 127.485 27.2855 127.666 27.2855C127.803 27.2855 127.928 27.2754 128.04 27.2553C128.157 27.2352 128.246 27.2171 128.306 27.201L128.674 28.9094C128.557 28.9497 128.39 28.994 128.173 29.0423C127.96 29.0906 127.698 29.1187 127.388 29.1268C126.841 29.1429 126.348 29.0604 125.909 28.8793C125.471 28.6941 125.122 28.4084 124.865 28.022C124.611 27.6357 124.487 27.1527 124.491 26.5732V17.5057ZM144.806 16.6364V29H142.814L136.989 20.5785H136.886V29H134.646V16.6364H136.65L142.47 25.0639H142.579V16.6364H144.806ZM151.195 29.1811C150.289 29.1811 149.505 28.9819 148.841 28.5835C148.176 28.185 147.661 27.6276 147.295 26.9112C146.933 26.1948 146.752 25.3577 146.752 24.3999C146.752 23.442 146.933 22.6029 147.295 21.8825C147.661 21.162 148.176 20.6026 148.841 20.2042C149.505 19.8058 150.289 19.6065 151.195 19.6065C152.1 19.6065 152.885 19.8058 153.549 20.2042C154.213 20.6026 154.727 21.162 155.089 21.8825C155.455 22.6029 155.638 23.442 155.638 24.3999C155.638 25.3577 155.455 26.1948 155.089 26.9112C154.727 27.6276 154.213 28.185 153.549 28.5835C152.885 28.9819 152.1 29.1811 151.195 29.1811ZM151.207 27.4304C151.698 27.4304 152.109 27.2956 152.439 27.0259C152.769 26.7522 153.014 26.386 153.175 25.9272C153.34 25.4684 153.423 24.9573 153.423 24.3938C153.423 23.8263 153.34 23.3132 153.175 22.8544C153.014 22.3916 152.769 22.0233 152.439 21.7496C152.109 21.476 151.698 21.3391 151.207 21.3391C150.704 21.3391 150.285 21.476 149.951 21.7496C149.621 22.0233 149.374 22.3916 149.209 22.8544C149.048 23.3132 148.967 23.8263 148.967 24.3938C148.967 24.9573 149.048 25.4684 149.209 25.9272C149.374 26.386 149.621 26.7522 149.951 27.0259C150.285 27.2956 150.704 27.4304 151.207 27.4304ZM159.141 29L156.521 19.7273H158.749L160.379 26.2472H160.463L162.129 19.7273H164.333L165.999 26.2109H166.09L167.695 19.7273H169.929L167.303 29H165.027L163.288 22.7337H163.162L161.423 29H159.141Z" fill="white"/>
</g>
<defs>
<filter id="filter0_i_55_1538" x="0" y="0" width="207" height="49" filterUnits="userSpaceOnUse" color-interpolation-filters="sRGB">
<feFlood flood-opacity="0" result="BackgroundImageFix"/>
<feBlend mode="normal" in="SourceGraphic" in2="BackgroundImageFix" result="shape"/>
<feColorMatrix in="SourceAlpha" type="matrix" values="0 0 0 0 0 0 0 0 0 0 0 0 0 0 0 0 0 0 127 0" result="hardAlpha"/>
<feOffset dy="4"/>
<feGaussianBlur stdDeviation="9.25"/>
<feComposite in2="hardAlpha" operator="arithmetic" k2="-1" k3="1"/>
<feColorMatrix type="matrix" values="0 0 0 0 0.584097 0 0 0 0 0.907815 0 0 0 0 1 0 0 0 1 0"/>
<feBlend mode="normal" in2="shape" result="effect1_innerShadow_55_1538"/>
</filter>
</defs>
</svg>
