<svg width="216" height="82" viewBox="0 0 216 82" fill="none" xmlns="http://www.w3.org/2000/svg">
<g filter="url(#filter0_d_24_157)">
<rect x="21" y="10" width="174" height="40" rx="12" fill="url(#paint0_radial_24_157)"/>
<path d="M67.8022 27.8079H65.5444C65.48 27.4376 65.3613 27.1096 65.1882 26.8239C65.0152 26.5341 64.7998 26.2886 64.5423 26.0874C64.2847 25.8861 63.9909 25.7352 63.6609 25.6346C63.3349 25.5299 62.9827 25.4776 62.6044 25.4776C61.9323 25.4776 61.3366 25.6467 60.8175 25.9847C60.2983 26.3188 59.8918 26.8098 59.598 27.4577C59.3042 28.1017 59.1573 28.8885 59.1573 29.8182C59.1573 30.764 59.3042 31.5608 59.598 32.2088C59.8958 32.8527 60.3023 33.3397 60.8175 33.6697C61.3366 33.9957 61.9303 34.1587 62.5984 34.1587C62.9686 34.1587 63.3147 34.1104 63.6367 34.0138C63.9627 33.9132 64.2545 33.7663 64.5121 33.5732C64.7737 33.38 64.993 33.1425 65.1701 32.8608C65.3512 32.5791 65.476 32.2571 65.5444 31.8949L67.8022 31.907C67.7177 32.4946 67.5346 33.0459 67.2528 33.5611C66.9751 34.0762 66.6109 34.531 66.1602 34.9254C65.7094 35.3158 65.1822 35.6217 64.5785 35.843C63.9748 36.0604 63.3047 36.169 62.5682 36.169C61.4815 36.169 60.5116 35.9175 59.6584 35.4144C58.8052 34.9113 58.133 34.1849 57.642 33.2351C57.151 32.2853 56.9055 31.1463 56.9055 29.8182C56.9055 28.486 57.1531 27.3471 57.6481 26.4013C58.1431 25.4515 58.8172 24.725 59.6705 24.2219C60.5237 23.7189 61.4896 23.4673 62.5682 23.4673C63.2564 23.4673 63.8963 23.5639 64.4879 23.7571C65.0795 23.9503 65.6068 24.234 66.0696 24.6083C66.5324 24.9786 66.9128 25.4334 67.2106 25.9727C67.5124 26.5079 67.7096 27.1197 67.8022 27.8079ZM73.8014 36.1811C72.8959 36.1811 72.1111 35.9819 71.447 35.5835C70.7829 35.185 70.2678 34.6276 69.9015 33.9112C69.5393 33.1948 69.3582 32.3577 69.3582 31.3999C69.3582 30.442 69.5393 29.6029 69.9015 28.8825C70.2678 28.162 70.7829 27.6026 71.447 27.2042C72.1111 26.8058 72.8959 26.6065 73.8014 26.6065C74.7069 26.6065 75.4917 26.8058 76.1558 27.2042C76.8199 27.6026 77.333 28.162 77.6952 28.8825C78.0615 29.6029 78.2446 30.442 78.2446 31.3999C78.2446 32.3577 78.0615 33.1948 77.6952 33.9112C77.333 34.6276 76.8199 35.185 76.1558 35.5835C75.4917 35.9819 74.7069 36.1811 73.8014 36.1811ZM73.8135 34.4304C74.3045 34.4304 74.715 34.2956 75.045 34.0259C75.375 33.7522 75.6205 33.386 75.7815 32.9272C75.9465 32.4684 76.029 31.9573 76.029 31.3938C76.029 30.8263 75.9465 30.3132 75.7815 29.8544C75.6205 29.3916 75.375 29.0233 75.045 28.7496C74.715 28.476 74.3045 28.3391 73.8135 28.3391C73.3104 28.3391 72.8918 28.476 72.5578 28.7496C72.2278 29.0233 71.9803 29.3916 71.8153 29.8544C71.6543 30.3132 71.5738 30.8263 71.5738 31.3938C71.5738 31.9573 71.6543 32.4684 71.8153 32.9272C71.9803 33.386 72.2278 33.7522 72.5578 34.0259C72.8918 34.2956 73.3104 34.4304 73.8135 34.4304ZM82.2848 30.5668V36H80.0994V26.7273H82.1882V28.3029H82.2969C82.5102 27.7837 82.8503 27.3712 83.3171 27.0653C83.788 26.7595 84.3696 26.6065 85.0618 26.6065C85.7017 26.6065 86.2591 26.7434 86.734 27.017C87.213 27.2907 87.5832 27.6871 87.8448 28.2063C88.1104 28.7255 88.2412 29.3554 88.2372 30.0959V36H86.0518V30.4339C86.0518 29.8142 85.8909 29.3292 85.5689 28.979C85.2509 28.6289 84.8103 28.4538 84.2468 28.4538C83.8645 28.4538 83.5244 28.5384 83.2266 28.7074C82.9328 28.8724 82.7013 29.1119 82.5323 29.4258C82.3673 29.7397 82.2848 30.12 82.2848 30.5668ZM92.6442 30.5668V36H90.4588V26.7273H92.5476V28.3029H92.6562C92.8696 27.7837 93.2096 27.3712 93.6765 27.0653C94.1474 26.7595 94.7289 26.6065 95.4212 26.6065C96.0611 26.6065 96.6185 26.7434 97.0934 27.017C97.5723 27.2907 97.9426 27.6871 98.2042 28.2063C98.4698 28.7255 98.6006 29.3554 98.5966 30.0959V36H96.4112V30.4339C96.4112 29.8142 96.2502 29.3292 95.9283 28.979C95.6103 28.6289 95.1696 28.4538 94.6062 28.4538C94.2238 28.4538 93.8838 28.5384 93.5859 28.7074C93.2921 28.8724 93.0607 29.1119 92.8917 29.4258C92.7267 29.7397 92.6442 30.12 92.6442 30.5668ZM104.923 36.1811C103.994 36.1811 103.191 35.9879 102.515 35.6016C101.842 35.2112 101.325 34.6598 100.963 33.9474C100.601 33.2311 100.42 32.3879 100.42 31.418C100.42 30.4641 100.601 29.627 100.963 28.9066C101.329 28.1822 101.84 27.6187 102.496 27.2163C103.152 26.8098 103.923 26.6065 104.809 26.6065C105.38 26.6065 105.919 26.6991 106.426 26.8842C106.938 27.0653 107.388 27.3471 107.779 27.7294C108.173 28.1117 108.483 28.5987 108.708 29.1903C108.934 29.7779 109.047 30.4782 109.047 31.2912V31.9613H101.446V30.4883H106.952C106.948 30.0697 106.857 29.6974 106.68 29.3714C106.503 29.0414 106.255 28.7818 105.938 28.5927C105.624 28.4035 105.257 28.3089 104.839 28.3089C104.392 28.3089 104 28.4176 103.662 28.6349C103.324 28.8482 103.06 29.13 102.871 29.4801C102.686 29.8262 102.591 30.2066 102.587 30.6211V31.907C102.587 32.4463 102.686 32.9091 102.883 33.2955C103.08 33.6778 103.356 33.9716 103.71 34.1768C104.064 34.3781 104.479 34.4787 104.953 34.4787C105.271 34.4787 105.559 34.4344 105.817 34.3459C106.074 34.2533 106.298 34.1185 106.487 33.9414C106.676 33.7643 106.819 33.545 106.915 33.2834L108.956 33.5128C108.827 34.0521 108.582 34.523 108.219 34.9254C107.861 35.3239 107.402 35.6338 106.843 35.8551C106.284 36.0724 105.644 36.1811 104.923 36.1811ZM114.94 36.1811C114.014 36.1811 113.22 35.9779 112.555 35.5714C111.895 35.1649 111.386 34.6035 111.028 33.8871C110.674 33.1667 110.497 32.3376 110.497 31.3999C110.497 30.4581 110.678 29.627 111.04 28.9066C111.402 28.1822 111.914 27.6187 112.574 27.2163C113.238 26.8098 114.022 26.6065 114.928 26.6065C115.681 26.6065 116.347 26.7454 116.926 27.0231C117.51 27.2968 117.975 27.6851 118.321 28.1882C118.667 28.6873 118.864 29.2708 118.912 29.9389H116.824C116.739 29.4922 116.538 29.1199 116.22 28.8221C115.906 28.5202 115.485 28.3693 114.958 28.3693C114.511 28.3693 114.119 28.4901 113.781 28.7315C113.443 28.969 113.179 29.3111 112.99 29.7578C112.805 30.2045 112.712 30.7398 112.712 31.3636C112.712 31.9955 112.805 32.5388 112.99 32.9936C113.175 33.4444 113.435 33.7925 113.769 34.038C114.107 34.2795 114.503 34.4002 114.958 34.4002C115.28 34.4002 115.568 34.3398 115.821 34.2191C116.079 34.0943 116.294 33.9152 116.467 33.6818C116.64 33.4484 116.759 33.1647 116.824 32.8306H118.912C118.86 33.4866 118.667 34.0682 118.333 34.5753C117.999 35.0784 117.544 35.4728 116.968 35.7585C116.393 36.0402 115.717 36.1811 114.94 36.1811ZM125.337 26.7273V28.4176H120.007V26.7273H125.337ZM121.323 24.5057H123.508V33.2109C123.508 33.5047 123.552 33.7301 123.641 33.8871C123.733 34.04 123.854 34.1446 124.003 34.201C124.152 34.2573 124.317 34.2855 124.498 34.2855C124.635 34.2855 124.76 34.2754 124.872 34.2553C124.989 34.2352 125.078 34.2171 125.138 34.201L125.506 35.9094C125.39 35.9497 125.222 35.994 125.005 36.0423C124.792 36.0906 124.53 36.1187 124.22 36.1268C123.673 36.1429 123.18 36.0604 122.741 35.8793C122.303 35.6941 121.954 35.4084 121.697 35.022C121.443 34.6357 121.319 34.1527 121.323 33.5732V24.5057ZM134.08 36L130.591 23.6364H133L135.227 32.7219H135.342L137.72 23.6364H139.912L142.296 32.728H142.405L144.633 23.6364H147.041L143.552 36H141.343L138.867 27.3249H138.771L136.29 36H134.08ZM150.22 36.1871C149.632 36.1871 149.103 36.0825 148.632 35.8732C148.165 35.6599 147.795 35.346 147.521 34.9315C147.252 34.5169 147.117 34.0058 147.117 33.3981C147.117 32.8749 147.214 32.4422 147.407 32.1001C147.6 31.758 147.863 31.4844 148.198 31.2791C148.532 31.0739 148.908 30.9189 149.326 30.8143C149.749 30.7056 150.186 30.6271 150.636 30.5788C151.18 30.5225 151.62 30.4722 151.959 30.4279C152.297 30.3796 152.542 30.3072 152.695 30.2106C152.852 30.11 152.93 29.955 152.93 29.7457V29.7095C152.93 29.2547 152.796 28.9026 152.526 28.6531C152.256 28.4035 151.868 28.2788 151.361 28.2788C150.826 28.2788 150.401 28.3955 150.087 28.6289C149.777 28.8623 149.568 29.138 149.459 29.456L147.419 29.1662C147.58 28.6027 147.845 28.1319 148.216 27.7536C148.586 27.3712 149.039 27.0855 149.574 26.8963C150.109 26.7031 150.701 26.6065 151.349 26.6065C151.796 26.6065 152.24 26.6589 152.683 26.7635C153.126 26.8681 153.53 27.0412 153.896 27.2827C154.263 27.5201 154.556 27.8441 154.778 28.2546C155.003 28.6651 155.116 29.1783 155.116 29.794V36H153.015V34.7262H152.943C152.81 34.9838 152.623 35.2253 152.381 35.4506C152.144 35.672 151.844 35.8511 151.482 35.9879C151.123 36.1207 150.703 36.1871 150.22 36.1871ZM150.787 34.5813C151.226 34.5813 151.606 34.4948 151.928 34.3217C152.25 34.1446 152.498 33.9112 152.671 33.6214C152.848 33.3317 152.937 33.0157 152.937 32.6737V31.581C152.868 31.6373 152.751 31.6896 152.586 31.7379C152.425 31.7862 152.244 31.8285 152.043 31.8647C151.842 31.9009 151.643 31.9331 151.445 31.9613C151.248 31.9895 151.077 32.0136 150.932 32.0337C150.606 32.078 150.314 32.1504 150.057 32.2511C149.799 32.3517 149.596 32.4925 149.447 32.6737C149.298 32.8507 149.224 33.0801 149.224 33.3619C149.224 33.7643 149.371 34.0682 149.665 34.2734C149.958 34.4787 150.333 34.5813 150.787 34.5813ZM159.499 23.6364V36H157.313V23.6364H159.499ZM163.931 23.6364V36H161.746V23.6364H163.931ZM170.284 36.1811C169.354 36.1811 168.551 35.9879 167.875 35.6016C167.203 35.2112 166.686 34.6598 166.323 33.9474C165.961 33.2311 165.78 32.3879 165.78 31.418C165.78 30.4641 165.961 29.627 166.323 28.9066C166.69 28.1822 167.201 27.6187 167.857 27.2163C168.513 26.8098 169.284 26.6065 170.169 26.6065C170.74 26.6065 171.28 26.6991 171.787 26.8842C172.298 27.0653 172.749 27.3471 173.139 27.7294C173.534 28.1117 173.843 28.5987 174.069 29.1903C174.294 29.7779 174.407 30.4782 174.407 31.2912V31.9613H166.806V30.4883H172.312C172.308 30.0697 172.217 29.6974 172.04 29.3714C171.863 29.0414 171.616 28.7818 171.298 28.5927C170.984 28.4035 170.618 28.3089 170.199 28.3089C169.752 28.3089 169.36 28.4176 169.022 28.6349C168.684 28.8482 168.42 29.13 168.231 29.4801C168.046 29.8262 167.951 30.2066 167.947 30.6211V31.907C167.947 32.4463 168.046 32.9091 168.243 33.2955C168.44 33.6778 168.716 33.9716 169.07 34.1768C169.424 34.3781 169.839 34.4787 170.314 34.4787C170.632 34.4787 170.92 34.4344 171.177 34.3459C171.435 34.2533 171.658 34.1185 171.847 33.9414C172.036 33.7643 172.179 33.545 172.276 33.2834L174.316 33.5128C174.188 34.0521 173.942 34.523 173.58 34.9254C173.222 35.3239 172.763 35.6338 172.203 35.8551C171.644 36.0724 171.004 36.1811 170.284 36.1811ZM180.886 26.7273V28.4176H175.555V26.7273H180.886ZM176.871 24.5057H179.057V33.2109C179.057 33.5047 179.101 33.7301 179.19 33.8871C179.282 34.04 179.403 34.1446 179.552 34.201C179.701 34.2573 179.866 34.2855 180.047 34.2855C180.184 34.2855 180.308 34.2754 180.421 34.2553C180.538 34.2352 180.626 34.2171 180.687 34.201L181.055 35.9094C180.938 35.9497 180.771 35.994 180.554 36.0423C180.341 36.0906 180.079 36.1187 179.769 36.1268C179.222 36.1429 178.729 36.0604 178.29 35.8793C177.851 35.6941 177.503 35.4084 177.246 35.022C176.992 34.6357 176.867 34.1527 176.871 33.5732V24.5057Z" fill="white"/>
<path d="M45.8139 21.4286H34.957C32.9608 21.4286 31.6956 23.5973 32.6998 25.3502L39.4003 37.0463C39.8375 37.81 40.9333 37.81 41.3705 37.0463L48.0723 25.3502C49.0753 23.5999 47.8087 21.4286 45.8139 21.4286ZM39.3948 33.5388L37.9356 30.6946L34.4146 24.3526C34.1823 23.9466 34.4692 23.4267 34.9556 23.4267H39.3935V33.5402L39.3948 33.5388ZM46.3536 24.3513L42.8338 30.6961L41.3746 33.5388V23.4252H45.8125C46.2988 23.4252 46.5858 23.9454 46.3536 24.3513Z" fill="white"/>
</g>
<defs>
<filter id="filter0_d_24_157" x="0" y="0" width="216" height="82" filterUnits="userSpaceOnUse" color-interpolation-filters="sRGB">
<feFlood flood-opacity="0" result="BackgroundImageFix"/>
<feColorMatrix in="SourceAlpha" type="matrix" values="0 0 0 0 0 0 0 0 0 0 0 0 0 0 0 0 0 0 127 0" result="hardAlpha"/>
<feOffset dy="11"/>
<feGaussianBlur stdDeviation="10.5"/>
<feComposite in2="hardAlpha" operator="out"/>
<feColorMatrix type="matrix" values="0 0 0 0 0.219608 0 0 0 0 0.67451 0 0 0 0 0.917647 0 0 0 0.18 0"/>
<feBlend mode="normal" in2="BackgroundImageFix" result="effect1_dropShadow_24_157"/>
<feBlend mode="normal" in="SourceGraphic" in2="effect1_dropShadow_24_157" result="shape"/>
</filter>
<radialGradient id="paint0_radial_24_157" cx="0" cy="0" r="1" gradientUnits="userSpaceOnUse" gradientTransform="translate(108 30) rotate(12.2864) scale(93.986 41.4038)">
<stop stop-color="#009BEF"/>
<stop offset="1" stop-color="#3CBAFF"/>
</radialGradient>
</defs>
</svg>
