<svg width="21" height="21" viewBox="0 0 21 21" fill="none" xmlns="http://www.w3.org/2000/svg">
<path d="M20.8801 0.846461V0.842242C20.8406 0.668483 20.7533 0.509259 20.6282 0.382534C20.5031 0.25581 20.3451 0.166628 20.1721 0.125051C18.7775 -0.215732 16.5837 0.147551 14.1526 1.12256C11.7023 2.10694 9.40641 3.56007 7.85461 5.11726C7.35722 5.61284 6.89513 6.14273 6.47175 6.70305C5.42677 6.65618 4.50627 6.80524 3.73084 7.14415C1.02876 8.33525 0.257079 11.3835 0.0516387 12.6351C0.021911 12.8129 0.0335509 12.9953 0.0856528 13.1678C0.137755 13.3404 0.228913 13.4986 0.352034 13.6302C0.475154 13.7617 0.626916 13.863 0.795508 13.9262C0.9641 13.9894 1.14497 14.0128 1.32406 13.9945H1.33014L4.34014 13.6654C4.34388 13.7039 4.34809 13.739 4.35137 13.7714C4.39003 14.1388 4.5536 14.4817 4.81466 14.7426L6.28363 16.215C6.54375 16.4768 6.88603 16.6409 7.2528 16.6795L7.35341 16.6903L7.02583 19.7016C7.02583 19.7016 7.02583 19.7053 7.02583 19.7076C7.00909 19.8698 7.02632 20.0337 7.07641 20.1889C7.12651 20.344 7.20837 20.4869 7.31676 20.6086C7.42516 20.7302 7.5577 20.8278 7.70591 20.8952C7.85412 20.9626 8.01475 20.9983 8.17751 21C8.24257 21.0001 8.30753 20.9947 8.37172 20.9841C9.62822 20.7816 12.67 20.018 13.8559 17.2969C14.1914 16.5253 14.3398 15.607 14.2981 14.5622C14.86 14.139 15.391 13.6761 15.8869 13.177C17.4513 11.6179 18.9067 9.33697 19.8792 6.91821C20.8474 4.5107 21.2119 2.29678 20.8801 0.846461ZM15.87 9.044C15.4855 9.42956 14.9955 9.69222 14.4619 9.79875C13.9283 9.90528 13.3752 9.85089 12.8725 9.64247C12.3698 9.43405 11.94 9.08095 11.6377 8.62785C11.3354 8.17476 11.174 7.64202 11.174 7.09704C11.174 6.55206 11.3354 6.01932 11.6377 5.56622C11.94 5.11313 12.3698 4.76003 12.8725 4.55161C13.3752 4.34318 13.9283 4.2888 14.4619 4.39533C14.9955 4.50186 15.4855 4.76451 15.87 5.15008C16.1278 5.40436 16.3324 5.70744 16.4721 6.04169C16.6118 6.37594 16.6838 6.73468 16.6838 7.09704C16.6838 7.4594 16.6118 7.81814 16.4721 8.15239C16.3324 8.48664 16.1278 8.78972 15.87 9.044Z" fill="white"/>
<path d="M5.33185 17.3644C5.15077 17.3419 4.96772 17.3864 4.81708 17.4895C4.51805 17.6944 4.21761 17.8969 3.91437 18.0942C3.30085 18.4936 2.56707 17.7923 2.93162 17.1567L3.50021 16.1723C3.5815 16.0532 3.62676 15.9131 3.63057 15.7689C3.63439 15.6247 3.59658 15.4824 3.5217 15.3591C3.44681 15.2359 3.33802 15.1369 3.20838 15.074C3.07873 15.0111 2.93373 14.9871 2.79076 15.0047C2.1597 15.0846 1.57312 15.3725 1.12338 15.8231C0.952102 15.9951 0.431248 16.5173 0.150933 18.5072C0.0711441 19.0787 0.0208482 19.654 0.000245889 20.2308C-0.00231568 20.3309 0.0151587 20.4305 0.0516387 20.5237C0.0881186 20.6169 0.142865 20.7019 0.212651 20.7736C0.282436 20.8453 0.365846 20.9022 0.457963 20.9411C0.55008 20.98 0.649038 21 0.749002 21H0.767721C1.34395 20.9796 1.91875 20.9295 2.48986 20.85C4.47734 20.5687 4.99866 20.0466 5.16994 19.875C5.62185 19.4243 5.90861 18.834 5.98374 18.1997C6.0078 18.0023 5.95265 17.8035 5.83041 17.6469C5.70818 17.4902 5.52885 17.3886 5.33185 17.3644Z" fill="white"/>
</svg>
