<svg width="20" height="22" viewBox="0 0 20 22" fill="none" xmlns="http://www.w3.org/2000/svg">
<path d="M10.5806 14.6488C10.3922 14.6632 10.202 14.6703 10.01 14.6703C9.77653 14.6703 9.54571 14.6593 9.31757 14.6387C8.18895 14.536 7.09529 14.1841 6.11149 13.6071C5.12768 13.0301 4.27698 12.2416 3.61763 11.2956C3.60027 11.2702 3.57689 11.2497 3.5497 11.2361C3.52251 11.2225 3.4924 11.2162 3.46218 11.2178C3.43197 11.2194 3.40265 11.2288 3.37697 11.2453C3.35129 11.2617 3.3301 11.2845 3.31538 11.3117L0.100882 17.2425C-0.0214473 17.4717 -0.040645 17.7467 0.0883815 17.9703C0.155547 18.0812 0.249114 18.1728 0.360264 18.2363C0.471414 18.2998 0.596486 18.3332 0.723692 18.3333H4.20607C4.32737 18.3287 4.44768 18.3574 4.55457 18.4165C4.66146 18.4755 4.75107 18.5628 4.81414 18.6693L6.54015 21.6333C6.60331 21.7433 6.69294 21.8348 6.80043 21.899C6.90792 21.9632 7.02968 21.998 7.15403 22C7.41923 21.9849 7.6938 21.808 7.80407 21.56L10.7556 14.9073C10.7684 14.8784 10.7736 14.8466 10.7708 14.815C10.7679 14.7834 10.7572 14.7531 10.7396 14.7271C10.7219 14.701 10.698 14.6801 10.6701 14.6664C10.6423 14.6527 10.6114 14.6466 10.5806 14.6488Z" fill="white"/>
<path d="M19.8955 17.2278L16.702 11.3075C16.6872 11.2807 16.6661 11.2581 16.6406 11.2418C16.6151 11.2255 16.5859 11.2161 16.5559 11.2145C16.5259 11.2128 16.496 11.219 16.469 11.2324C16.4419 11.2458 16.4185 11.2659 16.4011 11.291C15.5228 12.5543 14.3092 13.5315 12.9049 14.1061C12.7324 14.1759 12.5929 14.3114 12.5156 14.4842L10.8699 18.2013C10.8487 18.2488 10.8377 18.3004 10.8377 18.3526C10.8377 18.4048 10.8487 18.4564 10.8699 18.5038L12.2213 21.5559C12.3307 21.8038 12.6048 21.9849 12.8696 22C12.994 21.9969 13.1156 21.961 13.2227 21.8958C13.3298 21.8307 13.4188 21.7384 13.4812 21.6278L15.2014 18.6679C15.3305 18.4456 15.5644 18.332 15.8167 18.3333H19.3334C19.6312 18.3333 19.8567 18.1738 19.9585 17.875C19.9942 17.7689 20.0071 17.6561 19.9963 17.5443C19.9854 17.4326 19.951 17.3246 19.8955 17.2278Z" fill="white"/>
<path d="M10.0118 8.8C11.1956 8.8 12.1553 7.81503 12.1553 6.6C12.1553 5.38497 11.1956 4.4 10.0118 4.4C8.82802 4.4 7.86837 5.38497 7.86837 6.6C7.86837 7.81503 8.82802 8.8 10.0118 8.8Z" fill="white"/>
<path d="M10.0118 0C6.46604 0 3.58281 2.96038 3.58281 6.6C3.58281 10.2396 6.46738 13.2 10.0118 13.2C13.5562 13.2 16.4408 10.2392 16.4408 6.6C16.4408 2.96083 13.5571 0 10.0118 0ZM10.0118 10.2667C9.3054 10.2667 8.61486 10.0516 8.0275 9.64872C7.44014 9.24582 6.98235 8.67317 6.71202 8.00317C6.44169 7.33318 6.37096 6.59593 6.50877 5.88467C6.64659 5.17341 6.98675 4.52007 7.48626 4.00728C7.98577 3.49448 8.62218 3.14527 9.31501 3.00379C10.0078 2.86231 10.726 2.93492 11.3786 3.21244C12.0313 3.48996 12.5891 3.95993 12.9815 4.56291C13.374 5.16589 13.5835 5.8748 13.5835 6.6C13.5823 7.57209 13.2056 8.50401 12.5361 9.19139C11.8665 9.87876 10.9587 10.2655 10.0118 10.2667Z" fill="white"/>
</svg>
