<svg width="50" height="50" viewBox="0 0 50 50" fill="none" xmlns="http://www.w3.org/2000/svg">
<rect x="0.5" y="0.5" width="49" height="49" rx="7.5" fill="#0098EA" stroke="#0098EA"/>
<path d="M37.863 13.9674V13.9626C37.8178 13.764 37.7181 13.582 37.5751 13.4372C37.4321 13.2924 37.2516 13.1904 37.0538 13.1429C35.4601 12.7534 32.9528 13.1686 30.1744 14.2829C27.374 15.4079 24.7502 17.0686 22.9767 18.8483C22.4083 19.4147 21.8802 20.0203 21.3963 20.6606C20.202 20.6071 19.15 20.7774 18.2638 21.1647C15.1757 22.526 14.2938 26.0098 14.059 27.4401C14.025 27.6434 14.0383 27.8517 14.0979 28.049C14.1574 28.2462 14.2616 28.427 14.4023 28.5774C14.543 28.7277 14.7165 28.8435 14.9092 28.9157C15.1018 28.9879 15.3085 29.0146 15.5132 28.9937H15.5202L18.9602 28.6176C18.9644 28.6616 18.9692 28.7017 18.973 28.7387C19.0172 29.1586 19.2041 29.5505 19.5025 29.8487L21.1813 31.5314C21.4786 31.8307 21.8697 32.0182 22.2889 32.0623L22.4039 32.0746L22.0295 35.5161C22.0295 35.5161 22.0295 35.5203 22.0295 35.523C22.0104 35.7084 22.0301 35.8957 22.0873 36.073C22.1446 36.2503 22.2381 36.4136 22.362 36.5526C22.4859 36.6917 22.6374 36.8032 22.8068 36.8803C22.9761 36.9573 23.1597 36.9981 23.3457 37C23.4201 37.0001 23.4943 36.994 23.5677 36.9818C25.0037 36.7504 28.48 35.8777 29.8353 32.7678C30.2188 31.886 30.3883 30.8366 30.3407 29.6425C30.9829 29.1589 31.5897 28.6298 32.1564 28.0594C33.9444 26.2776 35.6077 23.6708 36.719 20.9065C37.8256 18.1551 38.2422 15.6249 37.863 13.9674ZM32.1372 23.336C31.6977 23.7766 31.1377 24.0768 30.5279 24.1986C29.9181 24.3203 29.2859 24.2582 28.7114 24.02C28.1369 23.7818 27.6458 23.3782 27.3002 22.8604C26.9547 22.3426 26.7703 21.7337 26.7703 21.1109C26.7703 20.4881 26.9547 19.8792 27.3002 19.3614C27.6458 18.8436 28.1369 18.44 28.7114 18.2018C29.2859 17.9636 29.9181 17.9015 30.5279 18.0232C31.1377 18.145 31.6977 18.4452 32.1372 18.8858C32.4317 19.1764 32.6656 19.5228 32.8253 19.9048C32.985 20.2868 33.0672 20.6968 33.0672 21.1109C33.0672 21.525 32.985 21.935 32.8253 22.317C32.6656 22.699 32.4317 23.0454 32.1372 23.336Z" fill="white"/>
<path d="M20.0935 32.845C19.8866 32.8193 19.6774 32.8701 19.5052 32.988C19.1635 33.2221 18.8201 33.4536 18.4736 33.6791C17.7724 34.1355 16.9338 33.3341 17.3504 32.6077L18.0002 31.4827C18.0931 31.3465 18.1449 31.1864 18.1492 31.0216C18.1536 30.8568 18.1104 30.6942 18.0248 30.5533C17.9392 30.4125 17.8149 30.2993 17.6667 30.2275C17.5186 30.1556 17.3528 30.1281 17.1894 30.1482C16.4682 30.2395 15.7978 30.5686 15.2839 31.0835C15.0881 31.2801 14.4929 31.8769 14.1725 34.1511C14.0813 34.8043 14.0238 35.4617 14.0003 36.1209C13.9974 36.2353 14.0173 36.3491 14.059 36.4557C14.1007 36.5622 14.1633 36.6593 14.243 36.7412C14.3228 36.8232 14.4181 36.8883 14.5234 36.9327C14.6287 36.9772 14.7418 37 14.856 37H14.8774C15.5359 36.9766 16.1929 36.9194 16.8456 36.8286C19.117 36.5071 19.7128 35.9104 19.9085 35.7143C20.425 35.1992 20.7527 34.5246 20.8386 33.7996C20.8661 33.5741 20.803 33.3468 20.6633 33.1678C20.5236 32.9888 20.3187 32.8727 20.0935 32.845Z" fill="white"/>
</svg>
