<svg width="263" height="282" viewBox="0 0 263 282" fill="none" xmlns="http://www.w3.org/2000/svg">
<path d="M0 0H263V90C263 90 258.175 94.9831 258 99C257.825 103.017 263 109 263 109V173.5C263 173.5 258.087 178.808 258 183C257.913 187.192 263 193 263 193V264C263 273.941 254.941 282 245 282H18C8.05888 282 0 273.941 0 264V193C0 193 5.08732 187.192 5 183C4.91268 178.808 0 173.5 0 173.5V109C0 109 5 103.5 5 99C5 94.5 0 90 0 90V0Z" fill="url(#paint0_linear_55_1755)"/>
<mask id="path-2-inside-1_55_1755" fill="white">
<path d="M25 99H244V101H25V99Z"/>
</mask>
<path d="M244 99V98H238.525V99V100H244V99ZM227.575 99V98H216.625V99V100H227.575V99ZM205.675 99V98H194.725V99V100H205.675V99ZM183.775 99V98H172.825V99V100H183.775V99ZM161.875 99V98H150.925V99V100H161.875V99ZM139.975 99V98H129.025V99V100H139.975V99ZM118.075 99V98H107.125V99V100H118.075V99ZM96.175 99V98H85.225V99V100H96.175V99ZM74.275 99V98H63.325V99V100H74.275V99ZM52.375 99V98H41.425V99V100H52.375V99ZM30.475 99V98H25V99V100H30.475V99ZM244 99V97H238.525V99V101H244V99ZM227.575 99V97H216.625V99V101H227.575V99ZM205.675 99V97H194.725V99V101H205.675V99ZM183.775 99V97H172.825V99V101H183.775V99ZM161.875 99V97H150.925V99V101H161.875V99ZM139.975 99V97H129.025V99V101H139.975V99ZM118.075 99V97H107.125V99V101H118.075V99ZM96.175 99V97H85.225V99V101H96.175V99ZM74.275 99V97H63.325V99V101H74.275V99ZM52.375 99V97H41.425V99V101H52.375V99ZM30.475 99V97H25V99V101H30.475V99Z" fill="white" fill-opacity="0.314" mask="url(#path-2-inside-1_55_1755)"/>
<mask id="path-4-inside-2_55_1755" fill="white">
<path d="M25 182H244V184H25V182Z"/>
</mask>
<path d="M244 182V181H238.525V182V183H244V182ZM227.575 182V181H216.625V182V183H227.575V182ZM205.675 182V181H194.725V182V183H205.675V182ZM183.775 182V181H172.825V182V183H183.775V182ZM161.875 182V181H150.925V182V183H161.875V182ZM139.975 182V181H129.025V182V183H139.975V182ZM118.075 182V181H107.125V182V183H118.075V182ZM96.175 182V181H85.225V182V183H96.175V182ZM74.275 182V181H63.325V182V183H74.275V182ZM52.375 182V181H41.425V182V183H52.375V182ZM30.475 182V181H25V182V183H30.475V182ZM244 182V180H238.525V182V184H244V182ZM227.575 182V180H216.625V182V184H227.575V182ZM205.675 182V180H194.725V182V184H205.675V182ZM183.775 182V180H172.825V182V184H183.775V182ZM161.875 182V180H150.925V182V184H161.875V182ZM139.975 182V180H129.025V182V184H139.975V182ZM118.075 182V180H107.125V182V184H118.075V182ZM96.175 182V180H85.225V182V184H96.175V182ZM74.275 182V180H63.325V182V184H74.275V182ZM52.375 182V180H41.425V182V184H52.375V182ZM30.475 182V180H25V182V184H30.475V182Z" fill="white" fill-opacity="0.314" mask="url(#path-4-inside-2_55_1755)"/>
<defs>
<linearGradient id="paint0_linear_55_1755" x1="131.5" y1="0" x2="131.5" y2="282" gradientUnits="userSpaceOnUse">
<stop stop-color="#2E9CDC"/>
<stop offset="1" stop-color="#3DD4FF"/>
</linearGradient>
</defs>
</svg>
