<svg width="350" height="145" viewBox="0 0 350 145" fill="none" xmlns="http://www.w3.org/2000/svg">
<g filter="url(#filter0_di_24_280)">
<rect x="40" y="19" width="270" height="65" rx="15" fill="url(#paint0_linear_24_280)" shape-rendering="crispEdges"/>
<path d="M118.061 49.5895C117.955 49.2443 117.808 48.9354 117.62 48.6626C117.437 48.3857 117.215 48.1491 116.955 47.9531C116.7 47.7571 116.406 47.6101 116.073 47.5121C115.741 47.4098 115.379 47.3587 114.987 47.3587C114.283 47.3587 113.657 47.5355 113.107 47.8892C112.558 48.2429 112.125 48.7628 111.81 49.4489C111.499 50.1307 111.343 50.9616 111.343 51.9418C111.343 52.9304 111.499 53.7678 111.81 54.4538C112.121 55.1399 112.553 55.6619 113.107 56.0199C113.661 56.3736 114.305 56.5504 115.038 56.5504C115.702 56.5504 116.278 56.4226 116.763 56.1669C117.254 55.9112 117.631 55.549 117.895 55.0803C118.159 54.6072 118.291 54.0533 118.291 53.4183L118.828 53.5014H115.274V51.6477H120.586V53.2202C120.586 54.3409 120.347 55.3104 119.87 56.1286C119.393 56.9467 118.737 57.5774 117.901 58.0206C117.066 58.4595 116.107 58.679 115.025 58.679C113.819 58.679 112.76 58.4084 111.848 57.8672C110.94 57.3217 110.231 56.5483 109.719 55.5469C109.212 54.5412 108.959 53.348 108.959 51.9673C108.959 50.9105 109.108 49.9666 109.406 49.1357C109.709 48.3047 110.131 47.5994 110.672 47.0199C111.213 46.4361 111.848 45.9929 112.577 45.6903C113.305 45.3835 114.098 45.2301 114.955 45.2301C115.679 45.2301 116.354 45.3366 116.981 45.5497C117.607 45.7585 118.163 46.0568 118.649 46.4446C119.139 46.8324 119.542 47.2926 119.857 47.8253C120.173 48.358 120.379 48.946 120.477 49.5895H118.061ZM127.123 58.6918C126.139 58.6918 125.289 58.4872 124.573 58.0781C123.861 57.6648 123.314 57.081 122.93 56.3267C122.547 55.5682 122.355 54.6754 122.355 53.6484C122.355 52.6385 122.547 51.7521 122.93 50.9893C123.318 50.2223 123.859 49.6257 124.554 49.1996C125.248 48.7692 126.064 48.554 127.002 48.554C127.607 48.554 128.178 48.652 128.715 48.848C129.256 49.0398 129.733 49.3381 130.147 49.7429C130.564 50.1477 130.893 50.6634 131.131 51.2898C131.37 51.9119 131.489 52.6534 131.489 53.5142V54.2237H123.442V52.6641H129.271C129.267 52.2209 129.171 51.8267 128.983 51.4815C128.796 51.1321 128.534 50.8572 128.197 50.657C127.865 50.4567 127.477 50.3565 127.034 50.3565C126.561 50.3565 126.145 50.4716 125.787 50.7017C125.43 50.9276 125.15 51.2259 124.95 51.5966C124.754 51.9631 124.654 52.3658 124.65 52.8047V54.1662C124.65 54.7372 124.754 55.2273 124.963 55.6364C125.172 56.0412 125.464 56.3523 125.839 56.5696C126.214 56.7827 126.653 56.8892 127.155 56.8892C127.492 56.8892 127.797 56.8423 128.069 56.7486C128.342 56.6506 128.579 56.5078 128.779 56.3203C128.979 56.1328 129.131 55.9006 129.233 55.6236L131.393 55.8665C131.257 56.4375 130.997 56.9361 130.613 57.3622C130.234 57.7841 129.748 58.1122 129.156 58.3466C128.564 58.5767 127.886 58.6918 127.123 58.6918ZM138.349 48.6818V50.4716H132.705V48.6818H138.349ZM134.099 46.3295H136.413V55.5469C136.413 55.858 136.46 56.0966 136.553 56.2628C136.651 56.4247 136.779 56.5355 136.937 56.5952C137.094 56.6548 137.269 56.6847 137.461 56.6847C137.606 56.6847 137.738 56.674 137.857 56.6527C137.981 56.6314 138.075 56.6122 138.138 56.5952L138.528 58.4041C138.405 58.4467 138.228 58.4936 137.998 58.5447C137.772 58.5959 137.495 58.6257 137.167 58.6342C136.587 58.6513 136.065 58.5639 135.601 58.3722C135.136 58.1761 134.768 57.8736 134.495 57.4645C134.227 57.0554 134.094 56.544 134.099 55.9304V46.3295ZM151.966 49.0078C151.906 48.4496 151.655 48.0149 151.212 47.7038C150.773 47.3928 150.202 47.2372 149.499 47.2372C149.004 47.2372 148.58 47.3118 148.227 47.4609C147.873 47.6101 147.602 47.8125 147.415 48.0682C147.227 48.3239 147.132 48.6158 147.127 48.9439C147.127 49.2166 147.189 49.4531 147.313 49.6534C147.441 49.8537 147.613 50.0241 147.83 50.1648C148.048 50.3011 148.289 50.4162 148.553 50.5099C148.817 50.6037 149.083 50.6825 149.352 50.7464L150.579 51.0533C151.073 51.1683 151.548 51.3239 152.004 51.5199C152.465 51.7159 152.876 51.9631 153.238 52.2614C153.605 52.5597 153.894 52.9197 154.107 53.3416C154.32 53.7635 154.427 54.2578 154.427 54.8246C154.427 55.5916 154.231 56.267 153.839 56.8509C153.447 57.4304 152.88 57.8842 152.139 58.2124C151.401 58.5362 150.509 58.6982 149.46 58.6982C148.442 58.6982 147.558 58.5405 146.808 58.2251C146.062 57.9098 145.478 57.4496 145.056 56.8445C144.639 56.2393 144.413 55.5021 144.379 54.6328H146.712C146.746 55.0888 146.887 55.468 147.134 55.7706C147.381 56.0732 147.703 56.299 148.099 56.4482C148.499 56.5973 148.947 56.6719 149.441 56.6719C149.957 56.6719 150.409 56.5952 150.796 56.4418C151.188 56.2841 151.495 56.0668 151.717 55.7898C151.938 55.5085 152.051 55.1804 152.056 54.8054C152.051 54.4645 151.951 54.1832 151.755 53.9616C151.559 53.7358 151.284 53.5483 150.931 53.3991C150.581 53.2457 150.172 53.1094 149.703 52.9901L148.214 52.6065C147.136 52.3295 146.284 51.9098 145.657 51.3473C145.035 50.7805 144.724 50.0284 144.724 49.0909C144.724 48.3196 144.933 47.6442 145.35 47.0646C145.772 46.4851 146.345 46.0355 147.07 45.7159C147.794 45.392 148.615 45.2301 149.531 45.2301C150.46 45.2301 151.274 45.392 151.972 45.7159C152.676 46.0355 153.227 46.4808 153.628 47.0518C154.029 47.6186 154.235 48.2706 154.248 49.0078H151.966ZM161.342 48.6818V50.4716H155.697V48.6818H161.342ZM157.091 46.3295H159.405V55.5469C159.405 55.858 159.452 56.0966 159.545 56.2628C159.643 56.4247 159.771 56.5355 159.929 56.5952C160.087 56.6548 160.261 56.6847 160.453 56.6847C160.598 56.6847 160.73 56.674 160.849 56.6527C160.973 56.6314 161.067 56.6122 161.131 56.5952L161.521 58.4041C161.397 58.4467 161.22 58.4936 160.99 58.5447C160.764 58.5959 160.487 58.6257 160.159 58.6342C159.58 58.6513 159.058 58.5639 158.593 58.3722C158.129 58.1761 157.76 57.8736 157.487 57.4645C157.219 57.0554 157.087 56.544 157.091 55.9304V46.3295ZM166.102 58.6982C165.48 58.6982 164.92 58.5874 164.421 58.3658C163.927 58.1399 163.535 57.8075 163.245 57.3686C162.959 56.9297 162.817 56.3885 162.817 55.745C162.817 55.1911 162.919 54.733 163.123 54.3707C163.328 54.0085 163.607 53.7188 163.961 53.5014C164.314 53.2841 164.713 53.12 165.156 53.0092C165.604 52.8942 166.066 52.8111 166.543 52.7599C167.118 52.7003 167.585 52.647 167.943 52.6001C168.301 52.549 168.561 52.4723 168.723 52.37C168.889 52.2635 168.972 52.0994 168.972 51.8778V51.8395C168.972 51.358 168.829 50.9851 168.544 50.7209C168.258 50.4567 167.847 50.3246 167.31 50.3246C166.743 50.3246 166.294 50.4482 165.961 50.6953C165.633 50.9425 165.412 51.2344 165.297 51.571L163.136 51.2642C163.307 50.6676 163.588 50.169 163.98 49.7685C164.372 49.3636 164.851 49.0611 165.418 48.8608C165.985 48.6562 166.611 48.554 167.297 48.554C167.77 48.554 168.241 48.6094 168.71 48.7202C169.179 48.831 169.607 49.0142 169.995 49.2699C170.383 49.5213 170.694 49.8643 170.928 50.299C171.167 50.7337 171.286 51.277 171.286 51.929V58.5H169.062V57.1513H168.985C168.844 57.424 168.646 57.6797 168.39 57.9183C168.139 58.1527 167.822 58.3423 167.438 58.4872C167.059 58.6278 166.613 58.6982 166.102 58.6982ZM166.703 56.9979C167.167 56.9979 167.57 56.9062 167.911 56.723C168.252 56.5355 168.514 56.2884 168.697 55.9815C168.885 55.6747 168.979 55.3402 168.979 54.978V53.821C168.906 53.8807 168.782 53.9361 168.608 53.9872C168.437 54.0384 168.246 54.0831 168.032 54.1214C167.819 54.1598 167.608 54.1939 167.4 54.2237C167.191 54.2536 167.01 54.2791 166.856 54.3004C166.511 54.3473 166.202 54.424 165.93 54.5305C165.657 54.6371 165.442 54.7862 165.284 54.978C165.126 55.1655 165.047 55.4084 165.047 55.7067C165.047 56.1328 165.203 56.4545 165.514 56.6719C165.825 56.8892 166.221 56.9979 166.703 56.9979ZM173.613 58.5V48.6818H175.856V50.3182H175.959C176.138 49.7514 176.444 49.3146 176.879 49.0078C177.318 48.6967 177.819 48.5412 178.381 48.5412C178.509 48.5412 178.652 48.5476 178.809 48.5604C178.971 48.5689 179.106 48.5838 179.212 48.6051V50.7337C179.114 50.6996 178.959 50.6697 178.746 50.6442C178.537 50.6143 178.334 50.5994 178.138 50.5994C177.716 50.5994 177.337 50.6911 177.001 50.8743C176.668 51.0533 176.406 51.3026 176.214 51.6222C176.023 51.9418 175.927 52.3104 175.927 52.728V58.5H173.613ZM186.18 48.6818V50.4716H180.535V48.6818H186.18ZM181.929 46.3295H184.243V55.5469C184.243 55.858 184.29 56.0966 184.383 56.2628C184.481 56.4247 184.609 56.5355 184.767 56.5952C184.925 56.6548 185.099 56.6847 185.291 56.6847C185.436 56.6847 185.568 56.674 185.687 56.6527C185.811 56.6314 185.905 56.6122 185.969 56.5952L186.358 58.4041C186.235 58.4467 186.058 58.4936 185.828 58.5447C185.602 58.5959 185.325 58.6257 184.997 58.6342C184.417 58.6513 183.895 58.5639 183.431 58.3722C182.966 58.1761 182.598 57.8736 182.325 57.4645C182.057 57.0554 181.925 56.544 181.929 55.9304V46.3295ZM192.356 58.6918C191.371 58.6918 190.521 58.4872 189.805 58.0781C189.094 57.6648 188.546 57.081 188.163 56.3267C187.779 55.5682 187.587 54.6754 187.587 53.6484C187.587 52.6385 187.779 51.7521 188.163 50.9893C188.55 50.2223 189.092 49.6257 189.786 49.1996C190.481 48.7692 191.297 48.554 192.234 48.554C192.839 48.554 193.411 48.652 193.947 48.848C194.489 49.0398 194.966 49.3381 195.379 49.7429C195.797 50.1477 196.125 50.6634 196.364 51.2898C196.602 51.9119 196.722 52.6534 196.722 53.5142V54.2237H188.674V52.6641H194.504C194.499 52.2209 194.403 51.8267 194.216 51.4815C194.028 51.1321 193.766 50.8572 193.43 50.657C193.097 50.4567 192.71 50.3565 192.266 50.3565C191.793 50.3565 191.378 50.4716 191.02 50.7017C190.662 50.9276 190.383 51.2259 190.183 51.5966C189.987 51.9631 189.886 52.3658 189.882 52.8047V54.1662C189.882 54.7372 189.987 55.2273 190.195 55.6364C190.404 56.0412 190.696 56.3523 191.071 56.5696C191.446 56.7827 191.885 56.8892 192.388 56.8892C192.724 56.8892 193.029 56.8423 193.302 56.7486C193.575 56.6506 193.811 56.5078 194.011 56.3203C194.212 56.1328 194.363 55.9006 194.465 55.6236L196.626 55.8665C196.489 56.4375 196.229 56.9361 195.846 57.3622C195.467 57.7841 194.981 58.1122 194.388 58.3466C193.796 58.5767 193.119 58.6918 192.356 58.6918ZM202.323 58.6726C201.551 58.6726 200.861 58.4744 200.252 58.0781C199.642 57.6818 199.161 57.1065 198.807 56.3523C198.453 55.598 198.276 54.6818 198.276 53.6037C198.276 52.5128 198.455 51.5923 198.813 50.8423C199.176 50.0881 199.664 49.5192 200.277 49.1357C200.891 48.7479 201.575 48.554 202.329 48.554C202.904 48.554 203.377 48.652 203.748 48.848C204.119 49.0398 204.413 49.272 204.63 49.5447C204.847 49.8132 205.016 50.0668 205.135 50.3054H205.231V45.4091H207.551V58.5H205.276V56.9531H205.135C205.016 57.1918 204.843 57.4453 204.617 57.7138C204.392 57.978 204.093 58.2038 203.722 58.3913C203.352 58.5788 202.885 58.6726 202.323 58.6726ZM202.968 56.7741C203.458 56.7741 203.876 56.642 204.221 56.3778C204.566 56.1094 204.828 55.7365 205.007 55.2592C205.186 54.782 205.276 54.2259 205.276 53.5909C205.276 52.956 205.186 52.4041 205.007 51.9354C204.833 51.4666 204.573 51.1023 204.227 50.8423C203.887 50.5824 203.467 50.4524 202.968 50.4524C202.453 50.4524 202.022 50.5866 201.677 50.8551C201.332 51.1236 201.072 51.4943 200.897 51.9673C200.722 52.4403 200.635 52.9815 200.635 53.5909C200.635 54.2045 200.722 54.7521 200.897 55.2337C201.076 55.7109 201.338 56.0881 201.683 56.3651C202.033 56.6378 202.461 56.7741 202.968 56.7741Z" fill="white"/>
<path fill-rule="evenodd" clip-rule="evenodd" d="M234.293 44.7929C234.683 44.4024 235.317 44.4024 235.707 44.7929L241.707 50.7929C242.098 51.1834 242.098 51.8166 241.707 52.2071L235.707 58.2071C235.317 58.5976 234.683 58.5976 234.293 58.2071C233.902 57.8166 233.902 57.1834 234.293 56.7929L239.586 51.5L234.293 46.2071C233.902 45.8166 233.902 45.1834 234.293 44.7929Z" fill="white"/>
</g>
<defs>
<filter id="filter0_di_24_280" x="0" y="0" width="350" height="145" filterUnits="userSpaceOnUse" color-interpolation-filters="sRGB">
<feFlood flood-opacity="0" result="BackgroundImageFix"/>
<feColorMatrix in="SourceAlpha" type="matrix" values="0 0 0 0 0 0 0 0 0 0 0 0 0 0 0 0 0 0 127 0" result="hardAlpha"/>
<feOffset dy="21"/>
<feGaussianBlur stdDeviation="20"/>
<feComposite in2="hardAlpha" operator="out"/>
<feColorMatrix type="matrix" values="0 0 0 0 0.0235294 0 0 0 0 0.678431 0 0 0 0 0.988235 0 0 0 0.19 0"/>
<feBlend mode="normal" in2="BackgroundImageFix" result="effect1_dropShadow_24_280"/>
<feBlend mode="normal" in="SourceGraphic" in2="effect1_dropShadow_24_280" result="shape"/>
<feColorMatrix in="SourceAlpha" type="matrix" values="0 0 0 0 0 0 0 0 0 0 0 0 0 0 0 0 0 0 127 0" result="hardAlpha"/>
<feOffset dx="5" dy="11"/>
<feGaussianBlur stdDeviation="15"/>
<feComposite in2="hardAlpha" operator="arithmetic" k2="-1" k3="1"/>
<feColorMatrix type="matrix" values="0 0 0 0 0.219608 0 0 0 0 0.67451 0 0 0 0 0.917647 0 0 0 1 0"/>
<feBlend mode="normal" in2="shape" result="effect2_innerShadow_24_280"/>
</filter>
<linearGradient id="paint0_linear_24_280" x1="40" y1="51.5" x2="310" y2="51.5" gradientUnits="userSpaceOnUse">
<stop stop-color="#008BD7"/>
<stop offset="1" stop-color="#31B5FC"/>
</linearGradient>
</defs>
</svg>
