<svg width="17" height="24" viewBox="0 0 17 24" fill="none" xmlns="http://www.w3.org/2000/svg">
<path d="M5.38211 23.2508C5.25645 23.2509 5.13229 23.2235 5.01835 23.1705C4.90442 23.1175 4.80347 23.0402 4.72261 22.944C4.64175 22.8478 4.58293 22.7351 4.55029 22.6137C4.51765 22.4924 4.51197 22.3654 4.53367 22.2416V22.2364L5.85133 15.0008H0.74992C0.60832 15.0008 0.469617 14.9607 0.349855 14.8851C0.230092 14.8096 0.134163 14.7017 0.0731628 14.5739C0.0121625 14.4461 -0.0114166 14.3037 0.00515303 14.163C0.0217227 14.0224 0.0777639 13.8893 0.166795 13.7792L10.4404 1.07892C10.5573 0.930482 10.7197 0.824427 10.9026 0.776977C11.0855 0.729526 11.2789 0.743292 11.4533 0.816169C11.6276 0.889046 11.7733 1.01702 11.8681 1.18053C11.9628 1.34404 12.0014 1.53407 11.9779 1.72158C11.9779 1.73564 11.9741 1.74924 11.9718 1.7633L10.6495 9.0008H15.7499C15.8915 9.00081 16.0302 9.04092 16.15 9.11646C16.2697 9.19201 16.3657 9.29992 16.4267 9.4277C16.4877 9.55549 16.5113 9.69794 16.4947 9.83856C16.4781 9.97919 16.4221 10.1123 16.333 10.2224L6.05805 22.9227C5.97731 23.0247 5.8746 23.1072 5.75757 23.164C5.64054 23.2208 5.5122 23.2505 5.38211 23.2508V23.2508Z" fill="url(#paint0_linear_24_287)"/>
<defs>
<linearGradient id="paint0_linear_24_287" x1="5" y1="12.0001" x2="16" y2="17.0001" gradientUnits="userSpaceOnUse">
<stop stop-color="#009BEF"/>
<stop offset="1" stop-color="#3DD4FF"/>
</linearGradient>
</defs>
</svg>
