<svg width="23" height="23" viewBox="0 0 23 23" fill="none" xmlns="http://www.w3.org/2000/svg">
<path fill-rule="evenodd" clip-rule="evenodd" d="M0.537674 5.45374C0.60133 4.48689 1.43645 3.79464 2.39882 3.68198C5.24388 3.34894 7.86897 2.2766 10.0854 0.657708C10.9215 0.0470059 12.0785 0.0470057 12.9146 0.657708C15.131 2.2766 17.7561 3.34894 20.6012 3.68198C21.5635 3.79464 22.3987 4.48689 22.4623 5.45374C22.4873 5.83317 22.5 6.21605 22.5 6.60195C22.5 13.5516 18.3837 19.519 12.5061 22.0981C11.865 22.3794 11.135 22.3794 10.4939 22.0981C4.61633 19.519 0.5 13.5516 0.5 6.60195C0.5 6.21605 0.512692 5.83317 0.537674 5.45374ZM16.5973 9.00001C17.1342 8.45141 17.1342 7.56195 16.5973 7.01336C16.0603 6.46476 15.1897 6.46476 14.6527 7.01336L10.125 11.6391L8.34727 9.82291C7.8103 9.27431 6.9397 9.27431 6.40273 9.82291C5.86576 10.3715 5.86576 11.261 6.40273 11.8096L9.15273 14.6191C9.6897 15.1677 10.5603 15.1677 11.0973 14.6191L16.5973 9.00001Z" fill="url(#paint0_linear_24_293)"/>
<defs>
<linearGradient id="paint0_linear_24_293" x1="21.5" y1="6.5" x2="-2" y2="16.5" gradientUnits="userSpaceOnUse">
<stop stop-color="#2F8FFA"/>
<stop offset="1" stop-color="#3DD4FF"/>
</linearGradient>
</defs>
</svg>
