<svg width="24" height="24" viewBox="0 0 24 24" fill="none" xmlns="http://www.w3.org/2000/svg">
<path d="M9.84424 23.5C9.61708 23.5011 9.39498 23.4329 9.20762 23.3045C9.02025 23.1761 8.87655 22.9935 8.79571 22.7812L7.00593 18.1273C6.96968 18.0335 6.91423 17.9484 6.84313 17.8773C6.77204 17.8062 6.68686 17.7507 6.59308 17.7145L1.93759 15.9234C1.72552 15.842 1.54312 15.6983 1.41446 15.5111C1.28579 15.3239 1.21691 15.1021 1.21691 14.875C1.21691 14.6478 1.28579 14.426 1.41446 14.2388C1.54312 14.0516 1.72552 13.9079 1.93759 13.8265L6.59173 12.0368C6.68552 12.0005 6.77069 11.9451 6.84179 11.874C6.91288 11.8029 6.96833 11.7177 7.00458 11.6239L8.79571 6.96867C8.8771 6.75662 9.02088 6.57422 9.20808 6.44556C9.39528 6.31691 9.61709 6.24803 9.84424 6.24803C10.0714 6.24803 10.2932 6.31691 10.4804 6.44556C10.6676 6.57422 10.8114 6.75662 10.8928 6.96867L12.6825 11.6226C12.7188 11.7164 12.7742 11.8015 12.8453 11.8726C12.9164 11.9437 13.0016 11.9992 13.0954 12.0354L17.7226 13.8157C17.9433 13.8975 18.1334 14.0453 18.2671 14.239C18.4008 14.4328 18.4715 14.663 18.4697 14.8983C18.4662 15.1215 18.3959 15.3385 18.2678 15.5213C18.1396 15.704 17.9595 15.8441 17.7509 15.9234L13.0967 17.7131C13.003 17.7494 12.9178 17.8048 12.8467 17.8759C12.7756 17.947 12.7201 18.0322 12.6839 18.126L10.8928 22.7812C10.8119 22.9935 10.6682 23.1761 10.4809 23.3045C10.2935 23.4329 10.0714 23.5011 9.84424 23.5Z" fill="#3CC9FF"/>
<path d="M4.45324 8.40615C4.32006 8.40615 4.19001 8.3658 4.08023 8.29042C3.97044 8.21504 3.88607 8.10817 3.83823 7.98389L3.08081 6.01451C3.06439 5.97143 3.03905 5.93232 3.00646 5.89973C2.97387 5.86713 2.93475 5.8418 2.89168 5.82538L0.922202 5.068C0.797932 5.02015 0.691075 4.93577 0.615708 4.82599C0.540341 4.71621 0.5 4.58617 0.5 4.45302C0.5 4.31986 0.540341 4.18982 0.615708 4.08004C0.691075 3.97026 0.797932 3.88589 0.922202 3.83803L2.89168 3.08065C2.93471 3.06416 2.97378 3.0388 3.00637 3.00621C3.03895 2.97363 3.06432 2.93455 3.08081 2.89153L3.83149 0.939663C3.87382 0.824753 3.94667 0.723552 4.04221 0.646937C4.13775 0.570321 4.25236 0.521188 4.37372 0.504817C4.51943 0.487105 4.66689 0.51854 4.7927 0.59414C4.91852 0.669739 5.01549 0.785175 5.06825 0.922143L5.82567 2.89153C5.84216 2.93455 5.86752 2.97363 5.90011 3.00621C5.93269 3.0388 5.97177 3.06416 6.0148 3.08065L7.98428 3.83803C8.10855 3.88589 8.2154 3.97026 8.29077 4.08004C8.36614 4.18982 8.40648 4.31986 8.40648 4.45302C8.40648 4.58617 8.36614 4.71621 8.29077 4.82599C8.2154 4.93577 8.10855 5.02015 7.98428 5.068L6.0148 5.82538C5.97173 5.8418 5.93261 5.86713 5.90002 5.89973C5.86742 5.93232 5.84209 5.97143 5.82567 6.01451L5.06825 7.98389C5.02041 8.10817 4.93604 8.21504 4.82625 8.29042C4.71646 8.3658 4.58641 8.40615 4.45324 8.40615Z" fill="#3CC9FF"/>
<path d="M18.4691 11.9999C18.3238 11.9999 18.1819 11.9558 18.0622 11.8735C17.9425 11.7912 17.8505 11.6746 17.7984 11.539L16.7723 8.87198C16.7542 8.82498 16.7265 8.7823 16.6909 8.74671C16.6553 8.71111 16.6126 8.68339 16.5656 8.66534L13.8985 7.63932C13.763 7.58711 13.6465 7.49508 13.5643 7.37536C13.4821 7.25564 13.4381 7.11384 13.4381 6.96863C13.4381 6.82343 13.4821 6.68162 13.5643 6.5619C13.6465 6.44218 13.763 6.35016 13.8985 6.29795L16.5656 5.27193C16.6126 5.25388 16.6553 5.22616 16.6909 5.19056C16.7265 5.15496 16.7542 5.11228 16.7723 5.06529L17.7907 2.41713C17.8372 2.2919 17.9168 2.18162 18.021 2.09801C18.1251 2.0144 18.25 1.96059 18.3824 1.94231C18.5414 1.92306 18.7023 1.95747 18.8395 2.04007C18.9767 2.12268 19.0824 2.24874 19.1398 2.39826L20.1659 5.06529C20.1839 5.11228 20.2116 5.15496 20.2472 5.19056C20.2828 5.22616 20.3255 5.25388 20.3725 5.27193L23.0397 6.29795C23.1752 6.35016 23.2917 6.44218 23.3738 6.5619C23.456 6.68162 23.5 6.82343 23.5 6.96863C23.5 7.11384 23.456 7.25564 23.3738 7.37536C23.2917 7.49508 23.1752 7.58711 23.0397 7.63932L20.3725 8.66534C20.3255 8.68339 20.2828 8.71111 20.2472 8.74671C20.2116 8.7823 20.1839 8.82498 20.1659 8.87198L19.1398 11.539C19.0877 11.6746 18.9957 11.7912 18.8759 11.8735C18.7562 11.9558 18.6144 11.9999 18.4691 11.9999Z" fill="#3CC9FF"/>
</svg>
