<svg width="201" height="45" viewBox="0 0 201 45" fill="none" xmlns="http://www.w3.org/2000/svg">
<rect x="0.5" y="0.5" width="200" height="44" rx="10.5" fill="url(#paint0_radial_55_1744)"/>
<rect x="0.5" y="0.5" width="200" height="44" rx="10.5" stroke="url(#paint1_linear_55_1744)"/>
<path d="M58.4964 20.326H56.1058C56.0376 19.9339 55.9119 19.5866 55.7287 19.2841C55.5455 18.9773 55.3175 18.7173 55.0447 18.5043C54.772 18.2912 54.4609 18.1314 54.1115 18.0249C53.7663 17.9141 53.3935 17.8587 52.9929 17.8587C52.2813 17.8587 51.6506 18.0376 51.1009 18.3956C50.5511 18.7493 50.1207 19.2692 49.8097 19.9553C49.4986 20.6371 49.343 21.4702 49.343 22.4545C49.343 23.456 49.4986 24.2997 49.8097 24.9858C50.125 25.6676 50.5554 26.1832 51.1009 26.5327C51.6506 26.8778 52.2791 27.0504 52.9865 27.0504C53.3786 27.0504 53.745 26.9993 54.0859 26.897C54.4311 26.7905 54.7401 26.6349 55.0128 26.4304C55.2898 26.2259 55.522 25.9744 55.7095 25.6761C55.9013 25.3778 56.0334 25.0369 56.1058 24.6534L58.4964 24.6662C58.407 25.2884 58.2131 25.8722 57.9148 26.4176C57.6207 26.9631 57.2351 27.4446 56.7578 27.8622C56.2805 28.2756 55.7223 28.5994 55.0831 28.8338C54.4439 29.0639 53.7344 29.179 52.9545 29.179C51.804 29.179 50.777 28.9126 49.8736 28.38C48.9702 27.8473 48.2585 27.0781 47.7386 26.0724C47.2188 25.0668 46.9588 23.8608 46.9588 22.4545C46.9588 21.044 47.2209 19.8381 47.745 18.8366C48.2692 17.831 48.983 17.0618 49.8864 16.5291C50.7898 15.9964 51.8125 15.7301 52.9545 15.7301C53.6832 15.7301 54.3608 15.8324 54.9872 16.0369C55.6136 16.2415 56.1719 16.5419 56.6619 16.9382C57.152 17.3303 57.5547 17.8118 57.87 18.3828C58.1896 18.9496 58.3984 19.5973 58.4964 20.326ZM64.8485 29.1918C63.8897 29.1918 63.0588 28.9808 62.3556 28.5589C61.6525 28.1371 61.1071 27.5469 60.7193 26.7884C60.3358 26.0298 60.144 25.1435 60.144 24.1293C60.144 23.1151 60.3358 22.2266 60.7193 21.4638C61.1071 20.701 61.6525 20.1087 62.3556 19.6868C63.0588 19.2649 63.8897 19.054 64.8485 19.054C65.8074 19.054 66.6383 19.2649 67.3414 19.6868C68.0446 20.1087 68.5879 20.701 68.9714 21.4638C69.3592 22.2266 69.5531 23.1151 69.5531 24.1293C69.5531 25.1435 69.3592 26.0298 68.9714 26.7884C68.5879 27.5469 68.0446 28.1371 67.3414 28.5589C66.6383 28.9808 65.8074 29.1918 64.8485 29.1918ZM64.8613 27.3381C65.3812 27.3381 65.8159 27.1953 66.1653 26.9098C66.5147 26.62 66.7747 26.2322 66.9451 25.7464C67.1199 25.2607 67.2072 24.7195 67.2072 24.1229C67.2072 23.522 67.1199 22.9787 66.9451 22.4929C66.7747 22.0028 66.5147 21.6129 66.1653 21.3232C65.8159 21.0334 65.3812 20.8885 64.8613 20.8885C64.3287 20.8885 63.8855 21.0334 63.5318 21.3232C63.1824 21.6129 62.9203 22.0028 62.7456 22.4929C62.5751 22.9787 62.4899 23.522 62.4899 24.1229C62.4899 24.7195 62.5751 25.2607 62.7456 25.7464C62.9203 26.2322 63.1824 26.62 63.5318 26.9098C63.8855 27.1953 64.3287 27.3381 64.8613 27.3381ZM73.831 23.2472V29H71.517V19.1818H73.7287V20.8501H73.8438C74.0696 20.3004 74.4297 19.8636 74.924 19.5398C75.4226 19.2159 76.0384 19.054 76.7713 19.054C77.4489 19.054 78.0391 19.1989 78.5419 19.4886C79.049 19.7784 79.4411 20.1982 79.718 20.7479C79.9993 21.2976 80.1378 21.9645 80.1335 22.7486V29H77.8196V23.1065C77.8196 22.4503 77.6491 21.9368 77.3082 21.5661C76.9716 21.1953 76.505 21.0099 75.9084 21.0099C75.5036 21.0099 75.1435 21.0994 74.8281 21.2784C74.517 21.4531 74.272 21.7067 74.093 22.0391C73.9183 22.3714 73.831 22.7741 73.831 23.2472ZM84.7997 23.2472V29H82.4858V19.1818H84.6974V20.8501H84.8125C85.0384 20.3004 85.3984 19.8636 85.8928 19.5398C86.3913 19.2159 87.0071 19.054 87.7401 19.054C88.4176 19.054 89.0078 19.1989 89.5107 19.4886C90.0178 19.7784 90.4098 20.1982 90.6868 20.7479C90.968 21.2976 91.1065 21.9645 91.1023 22.7486V29H88.7884V23.1065C88.7884 22.4503 88.6179 21.9368 88.277 21.5661C87.9403 21.1953 87.4737 21.0099 86.8771 21.0099C86.4723 21.0099 86.1122 21.0994 85.7969 21.2784C85.4858 21.4531 85.2408 21.7067 85.0618 22.0391C84.8871 22.3714 84.7997 22.7741 84.7997 23.2472ZM97.8011 29.1918C96.8168 29.1918 95.9666 28.9872 95.2507 28.5781C94.5391 28.1648 93.9915 27.581 93.608 26.8267C93.2244 26.0682 93.0327 25.1754 93.0327 24.1484C93.0327 23.1385 93.2244 22.2521 93.608 21.4893C93.9957 20.7223 94.5369 20.1257 95.2315 19.6996C95.9261 19.2692 96.7422 19.054 97.6797 19.054C98.2848 19.054 98.8558 19.152 99.3928 19.348C99.9339 19.5398 100.411 19.8381 100.825 20.2429C101.242 20.6477 101.57 21.1634 101.809 21.7898C102.048 22.4119 102.167 23.1534 102.167 24.0142V24.7237H94.1193V23.1641H99.9489C99.9446 22.7209 99.8487 22.3267 99.6612 21.9815C99.4737 21.6321 99.2116 21.3572 98.875 21.157C98.5426 20.9567 98.1548 20.8565 97.7116 20.8565C97.2386 20.8565 96.8232 20.9716 96.4652 21.2017C96.1072 21.4276 95.8281 21.7259 95.6278 22.0966C95.4318 22.4631 95.3317 22.8658 95.3274 23.3047V24.6662C95.3274 25.2372 95.4318 25.7273 95.6406 26.1364C95.8494 26.5412 96.1413 26.8523 96.5163 27.0696C96.8913 27.2827 97.3303 27.3892 97.8331 27.3892C98.1697 27.3892 98.4744 27.3423 98.7472 27.2486C99.0199 27.1506 99.2564 27.0078 99.4567 26.8203C99.657 26.6328 99.8082 26.4006 99.9105 26.1236L102.071 26.3665C101.935 26.9375 101.675 27.4361 101.291 27.8622C100.912 28.2841 100.426 28.6122 99.8338 28.8466C99.2415 29.0767 98.5639 29.1918 97.8011 29.1918ZM108.407 29.1918C107.427 29.1918 106.585 28.9766 105.882 28.5462C105.183 28.1158 104.644 27.5213 104.265 26.7628C103.89 26 103.703 25.1222 103.703 24.1293C103.703 23.1321 103.894 22.2521 104.278 21.4893C104.661 20.7223 105.203 20.1257 105.901 19.6996C106.605 19.2692 107.436 19.054 108.394 19.054C109.191 19.054 109.896 19.201 110.51 19.495C111.128 19.7848 111.62 20.196 111.987 20.7287C112.353 21.2571 112.562 21.875 112.613 22.5824H110.401C110.312 22.1094 110.099 21.7152 109.762 21.3999C109.43 21.0803 108.985 20.9205 108.426 20.9205C107.953 20.9205 107.538 21.0483 107.18 21.304C106.822 21.5554 106.543 21.9176 106.343 22.3906C106.146 22.8636 106.048 23.4304 106.048 24.0909C106.048 24.7599 106.146 25.3352 106.343 25.8168C106.539 26.294 106.813 26.6626 107.167 26.9226C107.525 27.1783 107.945 27.3061 108.426 27.3061C108.767 27.3061 109.072 27.2422 109.34 27.1143C109.613 26.9822 109.841 26.7926 110.024 26.5455C110.208 26.2983 110.333 25.9979 110.401 25.6442H112.613C112.558 26.3388 112.353 26.9545 111.999 27.4915C111.646 28.0241 111.164 28.4418 110.555 28.7443C109.945 29.0426 109.23 29.1918 108.407 29.1918ZM119.416 19.1818V20.9716H113.772V19.1818H119.416ZM115.165 16.8295H117.479V26.0469C117.479 26.358 117.526 26.5966 117.62 26.7628C117.718 26.9247 117.846 27.0355 118.003 27.0952C118.161 27.1548 118.336 27.1847 118.527 27.1847C118.672 27.1847 118.804 27.174 118.924 27.1527C119.047 27.1314 119.141 27.1122 119.205 27.0952L119.595 28.9041C119.471 28.9467 119.294 28.9936 119.064 29.0447C118.838 29.0959 118.561 29.1257 118.233 29.1342C117.654 29.1513 117.132 29.0639 116.667 28.8722C116.203 28.6761 115.834 28.3736 115.561 27.9645C115.293 27.5554 115.161 27.044 115.165 26.4304V16.8295ZM128.673 29L124.979 15.9091H127.529L129.888 25.5291H130.009L132.528 15.9091H134.848L137.373 25.5355H137.488L139.846 15.9091H142.397L138.702 29H136.363L133.742 19.8146H133.64L131.013 29H128.673ZM145.762 29.1982C145.14 29.1982 144.58 29.0874 144.081 28.8658C143.587 28.6399 143.195 28.3075 142.905 27.8686C142.619 27.4297 142.477 26.8885 142.477 26.245C142.477 25.6911 142.579 25.233 142.784 24.8707C142.988 24.5085 143.267 24.2188 143.621 24.0014C143.975 23.7841 144.373 23.62 144.816 23.5092C145.264 23.3942 145.726 23.3111 146.203 23.2599C146.779 23.2003 147.245 23.147 147.603 23.1001C147.961 23.049 148.221 22.9723 148.383 22.87C148.549 22.7635 148.632 22.5994 148.632 22.3778V22.3395C148.632 21.858 148.49 21.4851 148.204 21.2209C147.919 20.9567 147.507 20.8246 146.97 20.8246C146.404 20.8246 145.954 20.9482 145.622 21.1953C145.294 21.4425 145.072 21.7344 144.957 22.071L142.796 21.7642C142.967 21.1676 143.248 20.669 143.64 20.2685C144.032 19.8636 144.512 19.5611 145.078 19.3608C145.645 19.1562 146.271 19.054 146.958 19.054C147.431 19.054 147.901 19.1094 148.37 19.2202C148.839 19.331 149.267 19.5142 149.655 19.7699C150.043 20.0213 150.354 20.3643 150.588 20.799C150.827 21.2337 150.946 21.777 150.946 22.429V29H148.722V27.6513H148.645C148.504 27.924 148.306 28.1797 148.051 28.4183C147.799 28.6527 147.482 28.8423 147.098 28.9872C146.719 29.1278 146.274 29.1982 145.762 29.1982ZM146.363 27.4979C146.828 27.4979 147.23 27.4062 147.571 27.223C147.912 27.0355 148.174 26.7884 148.357 26.4815C148.545 26.1747 148.639 25.8402 148.639 25.478V24.321C148.566 24.3807 148.443 24.4361 148.268 24.4872C148.097 24.5384 147.906 24.5831 147.693 24.6214C147.48 24.6598 147.269 24.6939 147.06 24.7237C146.851 24.7536 146.67 24.7791 146.517 24.8004C146.171 24.8473 145.862 24.924 145.59 25.0305C145.317 25.1371 145.102 25.2862 144.944 25.478C144.786 25.6655 144.708 25.9084 144.708 26.2067C144.708 26.6328 144.863 26.9545 145.174 27.1719C145.485 27.3892 145.882 27.4979 146.363 27.4979ZM155.587 15.9091V29H153.273V15.9091H155.587ZM160.28 15.9091V29H157.966V15.9091H160.28ZM167.006 29.1918C166.022 29.1918 165.172 28.9872 164.456 28.5781C163.744 28.1648 163.197 27.581 162.813 26.8267C162.43 26.0682 162.238 25.1754 162.238 24.1484C162.238 23.1385 162.43 22.2521 162.813 21.4893C163.201 20.7223 163.742 20.1257 164.437 19.6996C165.131 19.2692 165.947 19.054 166.885 19.054C167.49 19.054 168.061 19.152 168.598 19.348C169.139 19.5398 169.616 19.8381 170.03 20.2429C170.447 20.6477 170.775 21.1634 171.014 21.7898C171.253 22.4119 171.372 23.1534 171.372 24.0142V24.7237H163.324V23.1641H169.154C169.15 22.7209 169.054 22.3267 168.866 21.9815C168.679 21.6321 168.417 21.3572 168.08 21.157C167.748 20.9567 167.36 20.8565 166.917 20.8565C166.444 20.8565 166.028 20.9716 165.67 21.2017C165.312 21.4276 165.033 21.7259 164.833 22.0966C164.637 22.4631 164.537 22.8658 164.532 23.3047V24.6662C164.532 25.2372 164.637 25.7273 164.846 26.1364C165.055 26.5412 165.346 26.8523 165.721 27.0696C166.096 27.2827 166.535 27.3892 167.038 27.3892C167.375 27.3892 167.68 27.3423 167.952 27.2486C168.225 27.1506 168.461 27.0078 168.662 26.8203C168.862 26.6328 169.013 26.4006 169.116 26.1236L171.276 26.3665C171.14 26.9375 170.88 27.4361 170.496 27.8622C170.117 28.2841 169.631 28.6122 169.039 28.8466C168.447 29.0767 167.769 29.1918 167.006 29.1918ZM178.232 19.1818V20.9716H172.588V19.1818H178.232ZM173.982 16.8295H176.295V26.0469C176.295 26.358 176.342 26.5966 176.436 26.7628C176.534 26.9247 176.662 27.0355 176.82 27.0952C176.977 27.1548 177.152 27.1847 177.344 27.1847C177.489 27.1847 177.621 27.174 177.74 27.1527C177.864 27.1314 177.957 27.1122 178.021 27.0952L178.411 28.9041C178.288 28.9467 178.111 28.9936 177.881 29.0447C177.655 29.0959 177.378 29.1257 177.05 29.1342C176.47 29.1513 175.948 29.0639 175.484 28.8722C175.019 28.6761 174.651 28.3736 174.378 27.9645C174.109 27.5554 173.977 27.044 173.982 26.4304V16.8295Z" fill="white"/>
<path d="M37.2402 14H25.7593C23.6484 14 22.3104 16.2771 23.3724 18.1177L30.458 30.3986C30.9203 31.2005 32.0791 31.2005 32.5414 30.3986L39.6283 18.1177C40.689 16.2799 39.3496 14 37.2402 14ZM30.4522 26.7157L28.9091 23.7294L25.1857 17.0702C24.9401 16.644 25.2435 16.098 25.7579 16.098H30.4507V26.7172L30.4522 26.7157ZM37.8108 17.0689L34.0888 23.7309L32.5458 26.7157V16.0965H37.2387C37.7529 16.0965 38.0565 16.6427 37.8108 17.0689Z" fill="white"/>
<defs>
<radialGradient id="paint0_radial_55_1744" cx="0" cy="0" r="1" gradientUnits="userSpaceOnUse" gradientTransform="translate(149.5 70) rotate(-144.005) scale(131.015 83.9301)">
<stop stop-color="#3DD4FF"/>
<stop offset="1" stop-color="#0098EA"/>
</radialGradient>
<linearGradient id="paint1_linear_55_1744" x1="21" y1="2.5" x2="153" y2="54.5" gradientUnits="userSpaceOnUse">
<stop stop-color="#3DD4FF"/>
<stop offset="1" stop-color="#0198EA"/>
</linearGradient>
</defs>
</svg>
