<svg width="248" height="408" viewBox="0 0 248 408" fill="none" xmlns="http://www.w3.org/2000/svg">
<g filter="url(#filter0_d_55_1736)">
<path d="M1360 81C1360 68.2975 1349.7 58 1337 58H994.636C990.616 58 986.665 59.0539 983.179 61.0566L976.844 64.696C969.543 68.8901 960.534 68.7596 953.358 64.356L948.535 61.3966C944.916 59.1756 940.752 58 936.506 58H512.313C508.498 58 504.742 58.9492 501.385 60.7622L493.028 65.275C485.882 69.134 477.23 68.938 470.266 64.7595L464.463 61.2777C460.888 59.1329 456.798 58 452.629 58H88C86.3432 58 85 59.3431 85 61V72.065C85 72.6739 85.1835 73.2645 85.5115 73.7775C86.9624 76.0462 91 82.8245 91 88C91 93.1755 86.9624 99.9538 85.5115 102.223C85.1835 102.735 85 103.326 85 103.935V117.13C85 117.698 85.1614 118.255 85.4655 118.735L86.7061 120.694C91.465 128.208 91.465 137.792 86.7061 145.306L85.7759 146.775C85.2691 147.575 85 148.503 85 149.45V161.55C85 162.497 85.2691 163.425 85.7759 164.225L86.4306 165.259C91.3305 172.995 91.1738 182.902 86.0317 190.48L85.8626 190.729C85.3005 191.557 85 192.535 85 193.536V204.508C85 205.481 85.2842 206.434 85.8177 207.248L86.2858 207.963C91.2442 215.531 91.081 225.359 85.8741 232.758V232.758C85.3053 233.566 85 234.53 85 235.519V249.198C85 250.052 85.2187 250.891 85.6353 251.637L88.99 257.64C92.3677 263.684 92.0456 271.117 88.1578 276.846V276.846C86.1001 279.879 85 283.459 85 287.124V292C85 294.209 86.7909 296 89 296H453.679C457.18 296 460.635 295.201 463.781 293.663L471.908 289.689C477.991 286.716 485.075 286.573 491.273 289.3L502.073 294.052C504.993 295.337 508.147 296 511.336 296H937.57C941.141 296 944.663 295.169 947.856 293.572L955.044 289.978C961.333 286.834 968.714 286.738 975.081 289.719L983.866 293.831C986.918 295.259 990.247 296 993.617 296H1337C1349.7 296 1360 285.703 1360 273V81Z" fill="url(#paint0_radial_55_1736)"/>
</g>
<defs>
<filter id="filter0_d_55_1736" x="0.400002" y="0.400002" width="1444.2" height="407.2" filterUnits="userSpaceOnUse" color-interpolation-filters="sRGB">
<feFlood flood-opacity="0" result="BackgroundImageFix"/>
<feColorMatrix in="SourceAlpha" type="matrix" values="0 0 0 0 0 0 0 0 0 0 0 0 0 0 0 0 0 0 127 0" result="hardAlpha"/>
<feOffset dy="27"/>
<feGaussianBlur stdDeviation="42.3"/>
<feComposite in2="hardAlpha" operator="out"/>
<feColorMatrix type="matrix" values="0 0 0 0 0.239216 0 0 0 0 0.831373 0 0 0 0 1 0 0 0 0.29 0"/>
<feBlend mode="normal" in2="BackgroundImageFix" result="effect1_dropShadow_55_1736"/>
<feBlend mode="normal" in="SourceGraphic" in2="effect1_dropShadow_55_1736" result="shape"/>
</filter>
<radialGradient id="paint0_radial_55_1736" cx="0" cy="0" r="1" gradientUnits="userSpaceOnUse" gradientTransform="translate(256.5 177) rotate(-180) scale(171.5 140.869)">
<stop stop-color="#3DD4FF"/>
<stop offset="1" stop-color="#0098EA"/>
</radialGradient>
</defs>
</svg>
