<svg width="257" height="101" viewBox="0 0 257 101" fill="none" xmlns="http://www.w3.org/2000/svg">
<g filter="url(#filter0_d_55_1747)">
<rect x="28" y="24" width="201" height="45" rx="11" fill="url(#paint0_radial_55_1747)"/>
<rect x="28.5" y="24.5" width="200" height="44" rx="10.5" stroke="url(#paint1_linear_55_1747)"/>
<path d="M92.4055 44.5078C92.3459 43.9496 92.0945 43.5149 91.6513 43.2038C91.2124 42.8928 90.6413 42.7372 89.9382 42.7372C89.4439 42.7372 89.0199 42.8118 88.6662 42.9609C88.3125 43.1101 88.0419 43.3125 87.8544 43.5682C87.6669 43.8239 87.571 44.1158 87.5668 44.4439C87.5668 44.7166 87.6286 44.9531 87.7521 45.1534C87.88 45.3537 88.0526 45.5241 88.2699 45.6648C88.4872 45.8011 88.728 45.9162 88.9922 46.0099C89.2564 46.1037 89.5227 46.1825 89.7912 46.2464L91.0185 46.5533C91.5128 46.6683 91.9879 46.8239 92.4439 47.0199C92.9041 47.2159 93.3153 47.4631 93.6776 47.7614C94.044 48.0597 94.3338 48.4197 94.5469 48.8416C94.7599 49.2635 94.8665 49.7578 94.8665 50.3246C94.8665 51.0916 94.6705 51.767 94.2784 52.3509C93.8864 52.9304 93.3196 53.3842 92.5781 53.7124C91.8409 54.0362 90.9482 54.1982 89.8999 54.1982C88.8814 54.1982 87.9972 54.0405 87.2472 53.7251C86.5014 53.4098 85.9176 52.9496 85.4957 52.3445C85.0781 51.7393 84.8523 51.0021 84.8182 50.1328H87.1513C87.1854 50.5888 87.326 50.968 87.5732 51.2706C87.8203 51.5732 88.142 51.799 88.5384 51.9482C88.9389 52.0973 89.3864 52.1719 89.8807 52.1719C90.3963 52.1719 90.848 52.0952 91.2358 51.9418C91.6278 51.7841 91.9347 51.5668 92.1562 51.2898C92.3778 51.0085 92.4908 50.6804 92.495 50.3054C92.4908 49.9645 92.3906 49.6832 92.1946 49.4616C91.9986 49.2358 91.7237 49.0483 91.37 48.8991C91.0206 48.7457 90.6115 48.6094 90.1428 48.4901L88.6534 48.1065C87.5753 47.8295 86.723 47.4098 86.0966 46.8473C85.4744 46.2805 85.1634 45.5284 85.1634 44.5909C85.1634 43.8196 85.3722 43.1442 85.7898 42.5646C86.2116 41.9851 86.7848 41.5355 87.5092 41.2159C88.2337 40.892 89.054 40.7301 89.9702 40.7301C90.8991 40.7301 91.7131 40.892 92.4119 41.2159C93.1151 41.5355 93.6669 41.9808 94.0675 42.5518C94.468 43.1186 94.6747 43.7706 94.6875 44.5078H92.4055ZM101.225 54.1918C100.241 54.1918 99.3904 53.9872 98.6745 53.5781C97.9629 53.1648 97.4153 52.581 97.0318 51.8267C96.6483 51.0682 96.4565 50.1754 96.4565 49.1484C96.4565 48.1385 96.6483 47.2521 97.0318 46.4893C97.4196 45.7223 97.9608 45.1257 98.6554 44.6996C99.35 44.2692 100.166 44.054 101.104 44.054C101.709 44.054 102.28 44.152 102.817 44.348C103.358 44.5398 103.835 44.8381 104.248 45.2429C104.666 45.6477 104.994 46.1634 105.233 46.7898C105.471 47.4119 105.591 48.1534 105.591 49.0142V49.7237H97.5431V48.1641H103.373C103.368 47.7209 103.273 47.3267 103.085 46.9815C102.898 46.6321 102.635 46.3572 102.299 46.157C101.966 45.9567 101.579 45.8565 101.135 45.8565C100.662 45.8565 100.247 45.9716 99.889 46.2017C99.5311 46.4276 99.252 46.7259 99.0517 47.0966C98.8556 47.4631 98.7555 47.8658 98.7512 48.3047V49.6662C98.7512 50.2372 98.8556 50.7273 99.0645 51.1364C99.2733 51.5412 99.5652 51.8523 99.9402 52.0696C100.315 52.2827 100.754 52.3892 101.257 52.3892C101.594 52.3892 101.898 52.3423 102.171 52.2486C102.444 52.1506 102.68 52.0078 102.881 51.8203C103.081 51.6328 103.232 51.4006 103.334 51.1236L105.495 51.3665C105.358 51.9375 105.099 52.4361 104.715 52.8622C104.336 53.2841 103.85 53.6122 103.258 53.8466C102.665 54.0767 101.988 54.1918 101.225 54.1918ZM111.895 54.1918C110.911 54.1918 110.06 53.9872 109.344 53.5781C108.633 53.1648 108.085 52.581 107.702 51.8267C107.318 51.0682 107.126 50.1754 107.126 49.1484C107.126 48.1385 107.318 47.2521 107.702 46.4893C108.089 45.7223 108.631 45.1257 109.325 44.6996C110.02 44.2692 110.836 44.054 111.773 44.054C112.379 44.054 112.95 44.152 113.487 44.348C114.028 44.5398 114.505 44.8381 114.918 45.2429C115.336 45.6477 115.664 46.1634 115.903 46.7898C116.141 47.4119 116.261 48.1534 116.261 49.0142V49.7237H108.213V48.1641H114.043C114.038 47.7209 113.942 47.3267 113.755 46.9815C113.567 46.6321 113.305 46.3572 112.969 46.157C112.636 45.9567 112.249 45.8565 111.805 45.8565C111.332 45.8565 110.917 45.9716 110.559 46.2017C110.201 46.4276 109.922 46.7259 109.722 47.0966C109.526 47.4631 109.425 47.8658 109.421 48.3047V49.6662C109.421 50.2372 109.526 50.7273 109.734 51.1364C109.943 51.5412 110.235 51.8523 110.61 52.0696C110.985 52.2827 111.424 52.3892 111.927 52.3892C112.263 52.3892 112.568 52.3423 112.841 52.2486C113.114 52.1506 113.35 52.0078 113.55 51.8203C113.751 51.6328 113.902 51.4006 114.004 51.1236L116.165 51.3665C116.028 51.9375 115.768 52.4361 115.385 52.8622C115.006 53.2841 114.52 53.6122 113.928 53.8466C113.335 54.0767 112.658 54.1918 111.895 54.1918ZM122.785 54V40.9091H127.694C128.7 40.9091 129.544 41.0966 130.226 41.4716C130.912 41.8466 131.43 42.3622 131.779 43.0185C132.133 43.6705 132.309 44.4119 132.309 45.2429C132.309 46.0824 132.133 46.8281 131.779 47.4801C131.425 48.1321 130.903 48.6456 130.213 49.0206C129.523 49.3913 128.672 49.5767 127.662 49.5767H124.409V47.6271H127.343C127.931 47.6271 128.412 47.5249 128.787 47.3203C129.162 47.1158 129.439 46.8345 129.618 46.4766C129.802 46.1186 129.893 45.7074 129.893 45.2429C129.893 44.7784 129.802 44.3693 129.618 44.0156C129.439 43.6619 129.16 43.3871 128.781 43.1911C128.406 42.9908 127.922 42.8906 127.33 42.8906H125.157V54H122.785ZM136.581 40.9091V54H134.267V40.9091H136.581ZM141.786 54.1982C141.164 54.1982 140.603 54.0874 140.105 53.8658C139.61 53.6399 139.218 53.3075 138.928 52.8686C138.643 52.4297 138.5 51.8885 138.5 51.245C138.5 50.6911 138.602 50.233 138.807 49.8707C139.012 49.5085 139.291 49.2188 139.644 49.0014C139.998 48.7841 140.396 48.62 140.84 48.5092C141.287 48.3942 141.749 48.3111 142.227 48.2599C142.802 48.2003 143.269 48.147 143.627 48.1001C143.985 48.049 144.244 47.9723 144.406 47.87C144.573 47.7635 144.656 47.5994 144.656 47.3778V47.3395C144.656 46.858 144.513 46.4851 144.227 46.2209C143.942 45.9567 143.531 45.8246 142.994 45.8246C142.427 45.8246 141.977 45.9482 141.645 46.1953C141.317 46.4425 141.095 46.7344 140.98 47.071L138.82 46.7642C138.99 46.1676 139.271 45.669 139.664 45.2685C140.056 44.8636 140.535 44.5611 141.102 44.3608C141.669 44.1562 142.295 44.054 142.981 44.054C143.454 44.054 143.925 44.1094 144.394 44.2202C144.862 44.331 145.291 44.5142 145.678 44.7699C146.066 45.0213 146.377 45.3643 146.612 45.799C146.85 46.2337 146.97 46.777 146.97 47.429V54H144.745V52.6513H144.669C144.528 52.924 144.33 53.1797 144.074 53.4183C143.823 53.6527 143.505 53.8423 143.122 53.9872C142.742 54.1278 142.297 54.1982 141.786 54.1982ZM142.387 52.4979C142.851 52.4979 143.254 52.4062 143.595 52.223C143.936 52.0355 144.198 51.7884 144.381 51.4815C144.568 51.1747 144.662 50.8402 144.662 50.478V49.321C144.59 49.3807 144.466 49.4361 144.291 49.4872C144.121 49.5384 143.929 49.5831 143.716 49.6214C143.503 49.6598 143.292 49.6939 143.083 49.7237C142.874 49.7536 142.693 49.7791 142.54 49.8004C142.195 49.8473 141.886 49.924 141.613 50.0305C141.34 50.1371 141.125 50.2862 140.968 50.478C140.81 50.6655 140.731 50.9084 140.731 51.2067C140.731 51.6328 140.887 51.9545 141.198 52.1719C141.509 52.3892 141.905 52.4979 142.387 52.4979ZM151.61 48.2472V54H149.296V44.1818H151.508V45.8501H151.623C151.849 45.3004 152.209 44.8636 152.703 44.5398C153.202 44.2159 153.818 44.054 154.551 44.054C155.228 44.054 155.818 44.1989 156.321 44.4886C156.828 44.7784 157.22 45.1982 157.497 45.7479C157.779 46.2976 157.917 46.9645 157.913 47.7486V54H155.599V48.1065C155.599 47.4503 155.428 46.9368 155.088 46.5661C154.751 46.1953 154.284 46.0099 153.688 46.0099C153.283 46.0099 152.923 46.0994 152.607 46.2784C152.296 46.4531 152.051 46.7067 151.872 47.0391C151.698 47.3714 151.61 47.7741 151.61 48.2472ZM168.025 46.777L165.916 47.0071C165.856 46.794 165.752 46.5938 165.602 46.4062C165.458 46.2188 165.262 46.0675 165.014 45.9524C164.767 45.8374 164.465 45.7798 164.107 45.7798C163.625 45.7798 163.22 45.8842 162.892 46.093C162.568 46.3018 162.409 46.5724 162.413 46.9048C162.409 47.1903 162.513 47.4226 162.726 47.6016C162.943 47.7805 163.301 47.9276 163.8 48.0426L165.475 48.4006C166.404 48.6009 167.094 48.9183 167.546 49.353C168.002 49.7876 168.232 50.3565 168.236 51.0597C168.232 51.6776 168.051 52.223 167.693 52.696C167.339 53.1648 166.847 53.5312 166.216 53.7955C165.585 54.0597 164.861 54.1918 164.043 54.1918C162.841 54.1918 161.874 53.9403 161.141 53.4375C160.408 52.9304 159.971 52.2251 159.83 51.3217L162.087 51.1044C162.189 51.5476 162.406 51.8821 162.739 52.108C163.071 52.3338 163.504 52.4467 164.036 52.4467C164.586 52.4467 165.027 52.3338 165.36 52.108C165.696 51.8821 165.865 51.603 165.865 51.2706C165.865 50.9893 165.756 50.7571 165.539 50.5739C165.325 50.3906 164.993 50.25 164.541 50.152L162.867 49.8004C161.925 49.6044 161.228 49.2741 160.776 48.8097C160.325 48.3409 160.101 47.7486 160.105 47.0327C160.101 46.4276 160.265 45.9034 160.597 45.4602C160.934 45.0128 161.401 44.6676 161.997 44.4247C162.598 44.1776 163.291 44.054 164.075 44.054C165.225 44.054 166.131 44.299 166.791 44.7891C167.456 45.2791 167.867 45.9418 168.025 46.777Z" fill="white"/>
</g>
<defs>
<filter id="filter0_d_55_1747" x="0.4" y="0.4" width="256.2" height="100.2" filterUnits="userSpaceOnUse" color-interpolation-filters="sRGB">
<feFlood flood-opacity="0" result="BackgroundImageFix"/>
<feColorMatrix in="SourceAlpha" type="matrix" values="0 0 0 0 0 0 0 0 0 0 0 0 0 0 0 0 0 0 127 0" result="hardAlpha"/>
<feOffset dy="4"/>
<feGaussianBlur stdDeviation="13.8"/>
<feComposite in2="hardAlpha" operator="out"/>
<feColorMatrix type="matrix" values="0 0 0 0 0.239216 0 0 0 0 0.831373 0 0 0 0 1 0 0 0 0.42 0"/>
<feBlend mode="normal" in2="BackgroundImageFix" result="effect1_dropShadow_55_1747"/>
<feBlend mode="normal" in="SourceGraphic" in2="effect1_dropShadow_55_1747" result="shape"/>
</filter>
<radialGradient id="paint0_radial_55_1747" cx="0" cy="0" r="1" gradientUnits="userSpaceOnUse" gradientTransform="translate(177.5 94) rotate(-144.005) scale(131.015 83.9301)">
<stop stop-color="#3DD4FF"/>
<stop offset="1" stop-color="#0098EA"/>
</radialGradient>
<linearGradient id="paint1_linear_55_1747" x1="49" y1="26.5" x2="181" y2="78.5" gradientUnits="userSpaceOnUse">
<stop stop-color="#3DD4FF"/>
<stop offset="1" stop-color="#0198EA"/>
</linearGradient>
</defs>
</svg>
