<svg width="1445" height="408" viewBox="0 0 1445 408" fill="none" xmlns="http://www.w3.org/2000/svg">
<g filter="url(#filter0_d_55_1719)">
<path d="M85 81C85 68.2975 95.2975 58 108 58H450.364C454.384 58 458.335 59.0539 461.821 61.0566L468.156 64.696C475.457 68.8901 484.466 68.7596 491.642 64.356L496.465 61.3966C500.084 59.1756 504.248 58 508.494 58H932.687C936.502 58 940.258 58.9492 943.615 60.7622L951.972 65.275C959.118 69.134 967.77 68.938 974.734 64.7595L980.537 61.2777C984.112 59.1329 988.202 58 992.371 58H1357C1358.66 58 1360 59.3431 1360 61V72.065C1360 72.6739 1359.82 73.2645 1359.49 73.7775C1358.04 76.0462 1354 82.8245 1354 88C1354 93.1755 1358.04 99.9538 1359.49 102.223C1359.82 102.735 1360 103.326 1360 103.935V117.13C1360 117.698 1359.84 118.255 1359.53 118.735L1358.29 120.694C1353.54 128.208 1353.54 137.792 1358.29 145.306L1359.22 146.775C1359.73 147.575 1360 148.503 1360 149.45V161.55C1360 162.497 1359.73 163.425 1359.22 164.225L1358.57 165.259C1353.67 172.995 1353.83 182.902 1358.97 190.48L1359.14 190.729C1359.7 191.557 1360 192.535 1360 193.536V204.508C1360 205.481 1359.72 206.434 1359.18 207.248L1358.71 207.963C1353.76 215.531 1353.92 225.359 1359.13 232.758V232.758C1359.69 233.566 1360 234.53 1360 235.519V249.198C1360 250.052 1359.78 250.891 1359.36 251.637L1356.01 257.64C1352.63 263.684 1352.95 271.117 1356.84 276.846V276.846C1358.9 279.879 1360 283.459 1360 287.124V292C1360 294.209 1358.21 296 1356 296H991.321C987.82 296 984.365 295.201 981.219 293.663L973.092 289.689C967.009 286.716 959.925 286.573 953.727 289.3L942.927 294.052C940.007 295.337 936.853 296 933.664 296H507.43C503.859 296 500.337 295.169 497.144 293.572L489.956 289.978C483.667 286.834 476.286 286.738 469.919 289.719L461.134 293.831C458.082 295.259 454.753 296 451.383 296H108C95.2974 296 85 285.703 85 273V81Z" fill="url(#paint0_radial_55_1719)"/>
<path d="M108 58.5H450.364C454.051 58.5001 457.678 59.4063 460.927 61.1338L461.571 61.4902L467.907 65.1299C475.367 69.4148 484.571 69.2814 491.903 64.7822L496.727 61.8223C500.046 59.7854 503.833 58.6479 507.717 58.5137L508.494 58.5H932.687C936.419 58.5 940.094 59.4286 943.378 61.2021L951.734 65.7148C959.036 69.6576 967.876 69.4577 974.991 65.1885L980.795 61.7061C984.073 59.7392 987.795 58.6421 991.607 58.5127L992.371 58.5H1357C1358.38 58.5 1359.5 59.6193 1359.5 61V72.0654C1359.5 72.5093 1359.38 72.9456 1359.17 73.3408L1359.07 73.5078C1358.34 74.6528 1356.95 76.9369 1355.75 79.5918C1354.55 82.2342 1353.5 85.3027 1353.5 88C1353.5 90.6973 1354.55 93.7658 1355.75 96.4082C1356.8 98.7313 1357.99 100.77 1358.76 102.011L1359.07 102.492C1359.35 102.93 1359.5 103.427 1359.5 103.935V117.13C1359.5 117.544 1359.4 117.951 1359.2 118.314L1359.11 118.468L1357.87 120.427C1353.01 128.104 1353.01 137.896 1357.87 145.573L1358.8 147.042C1359.26 147.762 1359.5 148.598 1359.5 149.45V161.55C1359.5 162.296 1359.31 163.029 1358.96 163.683L1358.8 163.958L1358.15 164.991C1353.14 172.896 1353.3 183.018 1358.55 190.761L1358.72 191.01C1359.23 191.755 1359.5 192.635 1359.5 193.536V204.508C1359.5 205.384 1359.24 206.241 1358.76 206.974L1358.3 207.688C1353.3 215.307 1353.39 225.165 1358.47 232.689L1358.72 233.046C1359.23 233.77 1359.5 234.633 1359.5 235.519V249.197C1359.5 249.966 1359.3 250.722 1358.93 251.393L1355.57 257.396C1352.1 263.606 1352.43 271.241 1356.43 277.127C1358.43 280.077 1359.5 283.559 1359.5 287.124V292C1359.5 293.933 1357.93 295.5 1356 295.5H991.321C987.896 295.5 984.516 294.718 981.439 293.214L973.312 289.24C967.096 286.202 959.858 286.057 953.525 288.843L942.726 293.595C939.87 294.851 936.784 295.5 933.664 295.5H507.43C503.937 295.5 500.491 294.687 497.367 293.125L490.179 289.53C483.754 286.318 476.213 286.22 469.707 289.266L460.922 293.378C457.936 294.775 454.68 295.5 451.384 295.5H108C95.5736 295.5 85.5 285.426 85.5 273V81C85.5 68.5736 95.5736 58.5 108 58.5Z" stroke="#01A4F5"/>
</g>
<mask id="path-3-inside-1_55_1719" fill="white">
<path d="M966 78V276H964V78H966Z"/>
</mask>
<path d="M966 276H967V270.5H966H965V276H966ZM966 259.5H967V248.5H966H965V259.5H966ZM966 237.5H967V226.5H966H965V237.5H966ZM966 215.5H967V204.5H966H965V215.5H966ZM966 193.5H967V182.5H966H965V193.5H966ZM966 171.5H967V160.5H966H965V171.5H966ZM966 149.5H967V138.5H966H965V149.5H966ZM966 127.5H967V116.5H966H965V127.5H966ZM966 105.5H967V94.5H966H965V105.5H966ZM966 83.5H967V78H966H965V83.5H966ZM966 276H968V270.5H966H964V276H966ZM966 259.5H968V248.5H966H964V259.5H966ZM966 237.5H968V226.5H966H964V237.5H966ZM966 215.5H968V204.5H966H964V215.5H966ZM966 193.5H968V182.5H966H964V193.5H966ZM966 171.5H968V160.5H966H964V171.5H966ZM966 149.5H968V138.5H966H964V149.5H966ZM966 127.5H968V116.5H966H964V127.5H966ZM966 105.5H968V94.5H966H964V105.5H966ZM966 83.5H968V78H966H964V83.5H966Z" fill="white" fill-opacity="0.9" mask="url(#path-3-inside-1_55_1719)"/>
<mask id="path-5-inside-2_55_1719" fill="white">
<path d="M480 78V276H478V78H480Z"/>
</mask>
<path d="M480 276H481V270.5H480H479V276H480ZM480 259.5H481V248.5H480H479V259.5H480ZM480 237.5H481V226.5H480H479V237.5H480ZM480 215.5H481V204.5H480H479V215.5H480ZM480 193.5H481V182.5H480H479V193.5H480ZM480 171.5H481V160.5H480H479V171.5H480ZM480 149.5H481V138.5H480H479V149.5H480ZM480 127.5H481V116.5H480H479V127.5H480ZM480 105.5H481V94.5H480H479V105.5H480ZM480 83.5H481V78H480H479V83.5H480ZM480 276H482V270.5H480H478V276H480ZM480 259.5H482V248.5H480H478V259.5H480ZM480 237.5H482V226.5H480H478V237.5H480ZM480 215.5H482V204.5H480H478V215.5H480ZM480 193.5H482V182.5H480H478V193.5H480ZM480 171.5H482V160.5H480H478V171.5H480ZM480 149.5H482V138.5H480H478V149.5H480ZM480 127.5H482V116.5H480H478V127.5H480ZM480 105.5H482V94.5H480H478V105.5H480ZM480 83.5H482V78H480H478V83.5H480Z" fill="white" fill-opacity="0.9" mask="url(#path-5-inside-2_55_1719)"/>
<defs>
<filter id="filter0_d_55_1719" x="0.400002" y="0.400002" width="1444.2" height="407.2" filterUnits="userSpaceOnUse" color-interpolation-filters="sRGB">
<feFlood flood-opacity="0" result="BackgroundImageFix"/>
<feColorMatrix in="SourceAlpha" type="matrix" values="0 0 0 0 0 0 0 0 0 0 0 0 0 0 0 0 0 0 127 0" result="hardAlpha"/>
<feOffset dy="27"/>
<feGaussianBlur stdDeviation="42.3"/>
<feComposite in2="hardAlpha" operator="out"/>
<feColorMatrix type="matrix" values="0 0 0 0 0.239216 0 0 0 0 0.831373 0 0 0 0 1 0 0 0 0.29 0"/>
<feBlend mode="normal" in2="BackgroundImageFix" result="effect1_dropShadow_55_1719"/>
<feBlend mode="normal" in="SourceGraphic" in2="effect1_dropShadow_55_1719" result="shape"/>
</filter>
<radialGradient id="paint0_radial_55_1719" cx="0" cy="0" r="1" gradientUnits="userSpaceOnUse" gradientTransform="translate(880.5 114.5) rotate(7.4263) scale(483.556 397.191)">
<stop stop-color="#3DD4FF"/>
<stop offset="1" stop-color="#0098EA"/>
</radialGradient>
</defs>
</svg>
