<svg width="248" height="408" viewBox="0 0 248 408" fill="none" xmlns="http://www.w3.org/2000/svg">
<g filter="url(#filter0_d_55_1740)">
<path d="M-1112 81C-1112 68.2975 -1101.7 58 -1089 58H-746.636C-742.616 58 -738.665 59.0539 -735.179 61.0566L-728.844 64.696C-721.543 68.8901 -712.534 68.7596 -705.358 64.356L-700.535 61.3966C-696.916 59.1756 -692.752 58 -688.506 58H-264.313C-260.498 58 -256.742 58.9492 -253.385 60.7622L-245.028 65.275C-237.882 69.134 -229.23 68.938 -222.266 64.7595L-216.463 61.2777C-212.888 59.1329 -208.798 58 -204.629 58H160C161.657 58 163 59.3431 163 61V72.065C163 72.6739 162.817 73.2645 162.489 73.7775C161.038 76.0462 157 82.8245 157 88C157 93.1755 161.038 99.9538 162.489 102.223C162.817 102.735 163 103.326 163 103.935V117.13C163 117.698 162.839 118.255 162.534 118.735L161.294 120.694C156.535 128.208 156.535 137.792 161.294 145.306L162.224 146.775C162.731 147.575 163 148.503 163 149.45V161.55C163 162.497 162.731 163.425 162.224 164.225L161.569 165.259C156.67 172.995 156.826 182.902 161.968 190.48L162.137 190.729C162.699 191.557 163 192.535 163 193.536V204.508C163 205.481 162.716 206.434 162.182 207.248L161.714 207.963C156.756 215.531 156.919 225.359 162.126 232.758V232.758C162.695 233.566 163 234.53 163 235.519V249.198C163 250.052 162.781 250.891 162.365 251.637L159.01 257.64C155.632 263.684 155.954 271.117 159.842 276.846V276.846C161.9 279.879 163 283.459 163 287.124V292C163 294.209 161.209 296 159 296H-205.679C-209.18 296 -212.635 295.201 -215.781 293.663L-223.908 289.689C-229.991 286.716 -237.075 286.573 -243.273 289.3L-254.073 294.052C-256.993 295.337 -260.147 296 -263.336 296H-689.57C-693.141 296 -696.663 295.169 -699.856 293.572L-707.044 289.978C-713.333 286.834 -720.714 286.738 -727.081 289.719L-735.866 293.831C-738.918 295.259 -742.247 296 -745.617 296H-1089C-1101.7 296 -1112 285.703 -1112 273V81Z" fill="url(#paint0_radial_55_1740)"/>
<path d="M-1089 58.5H-746.636C-742.949 58.5001 -739.322 59.4063 -736.073 61.1338L-735.429 61.4902L-729.093 65.1299C-721.633 69.4148 -712.429 69.2814 -705.097 64.7822L-700.273 61.8223C-696.954 59.7854 -693.167 58.6479 -689.283 58.5137L-688.506 58.5H-264.313C-260.581 58.5 -256.906 59.4286 -253.622 61.2021L-245.266 65.7148C-237.964 69.6576 -229.124 69.4577 -222.009 65.1885L-216.205 61.7061C-212.927 59.7392 -209.205 58.6421 -205.393 58.5127L-204.629 58.5H160C161.381 58.5 162.5 59.6193 162.5 61V72.0654C162.5 72.5093 162.383 72.9456 162.166 73.3408L162.067 73.5078C161.335 74.6528 159.949 76.9369 158.745 79.5918C157.546 82.2342 156.5 85.3027 156.5 88C156.5 90.6973 157.546 93.7658 158.745 96.4082C159.799 98.7313 160.991 100.77 161.764 102.011L162.067 102.492C162.347 102.93 162.5 103.427 162.5 103.935V117.13C162.5 117.544 162.397 117.951 162.201 118.314L162.112 118.468L160.871 120.427C156.009 128.104 156.009 137.896 160.871 145.573L161.802 147.042C162.258 147.762 162.5 148.598 162.5 149.45V161.55C162.5 162.296 162.315 163.029 161.963 163.683L161.802 163.958L161.147 164.991C156.141 172.896 156.301 183.018 161.555 190.761L161.724 191.01C162.229 191.755 162.5 192.635 162.5 193.536V204.508C162.5 205.384 162.244 206.241 161.764 206.974L161.296 207.688C156.304 215.307 156.388 225.165 161.471 232.689L161.717 233.046C162.226 233.77 162.5 234.633 162.5 235.519V249.197C162.5 249.966 162.303 250.722 161.929 251.393L158.573 257.396C155.104 263.606 155.435 271.241 159.429 277.127C161.43 280.077 162.5 283.559 162.5 287.124V292C162.5 293.933 160.933 295.5 159 295.5H-205.679C-209.104 295.5 -212.484 294.718 -215.561 293.214L-223.688 289.24C-229.904 286.202 -237.142 286.057 -243.475 288.843L-254.274 293.595C-257.13 294.851 -260.216 295.5 -263.336 295.5H-689.57C-693.063 295.5 -696.509 294.687 -699.633 293.125L-706.821 289.53C-713.246 286.318 -720.787 286.22 -727.293 289.266L-736.078 293.378C-739.064 294.775 -742.32 295.5 -745.616 295.5H-1089C-1101.43 295.5 -1111.5 285.426 -1111.5 273V81C-1111.5 68.5736 -1101.43 58.5 -1089 58.5Z" stroke="#01A4F5"/>
</g>
<defs>
<filter id="filter0_d_55_1740" x="-1196.6" y="0.400002" width="1444.2" height="407.2" filterUnits="userSpaceOnUse" color-interpolation-filters="sRGB">
<feFlood flood-opacity="0" result="BackgroundImageFix"/>
<feColorMatrix in="SourceAlpha" type="matrix" values="0 0 0 0 0 0 0 0 0 0 0 0 0 0 0 0 0 0 127 0" result="hardAlpha"/>
<feOffset dy="27"/>
<feGaussianBlur stdDeviation="42.3"/>
<feComposite in2="hardAlpha" operator="out"/>
<feColorMatrix type="matrix" values="0 0 0 0 0.239216 0 0 0 0 0.831373 0 0 0 0 1 0 0 0 0.29 0"/>
<feBlend mode="normal" in2="BackgroundImageFix" result="effect1_dropShadow_55_1740"/>
<feBlend mode="normal" in="SourceGraphic" in2="effect1_dropShadow_55_1740" result="shape"/>
</filter>
<radialGradient id="paint0_radial_55_1740" cx="0" cy="0" r="1" gradientUnits="userSpaceOnUse" gradientTransform="translate(-18 177) scale(181 148.673)">
<stop stop-color="#3DD4FF"/>
<stop offset="1" stop-color="#0098EA"/>
</radialGradient>
</defs>
</svg>
