<svg width="65" height="66" viewBox="0 0 65 66" fill="none" xmlns="http://www.w3.org/2000/svg">
<path d="M32.5 65.5C50.4493 65.5 65 50.9493 65 33C65 15.0507 50.4493 0.5 32.5 0.5C14.5507 0.5 0 15.0507 0 33C0 50.9493 14.5507 65.5 32.5 65.5Z" fill="#02B1F7"/>
<path d="M43.5965 18.6392H21.4017C17.3208 18.6392 14.7343 23.0412 16.7874 26.5998L30.4852 50.342C31.379 51.8922 33.6191 51.8922 34.513 50.342L48.2136 26.5998C50.2639 23.0469 47.6773 18.6392 43.5993 18.6392H43.5965ZM30.474 43.222L27.4909 37.4485L20.2928 24.5747C19.818 23.7507 20.4045 22.6948 21.3989 22.6948H30.4713V43.2248L30.474 43.222ZM44.6998 24.5719L37.5045 37.4513L34.5213 43.222V22.692H43.5937C44.5881 22.692 45.1746 23.7479 44.6998 24.5719Z" fill="white"/>
</svg>
