<svg width="455" height="328" viewBox="0 0 455 328" fill="none" xmlns="http://www.w3.org/2000/svg">
<path d="M454.951 45.6846C454.982 29.8785 447.813 14.9184 435.475 5.03949C431.4 1.77739 426.337 0 421.117 0H3.00003C1.34317 0 3.05176e-05 1.34315 3.05176e-05 3V19.8714C3.05176e-05 20.3961 0.134125 20.9048 0.384125 21.3661C1.83301 24.0397 6.88525 33.8964 6.88525 41.3445C6.88525 48.7927 1.83301 58.6494 0.384125 61.323C0.134125 61.7843 3.05176e-05 62.2929 3.05176e-05 62.8176V81.9465C3.05176e-05 82.4342 0.118927 82.9145 0.346405 83.3459L5.2438 92.6326C8.78461 99.3469 8.78461 107.376 5.2438 114.09L0.577332 122.939C0.198181 123.658 3.05176e-05 124.458 3.05176e-05 125.271V143.468C3.05176e-05 144.281 0.198181 145.082 0.577332 145.801L5.04333 154.269C8.69446 161.193 8.57397 169.498 4.72354 176.312L0.646851 183.527C0.222839 184.278 3.05176e-05 185.125 3.05176e-05 185.987V202.691C3.05176e-05 203.528 0.209991 204.351 0.610718 205.086L4.67194 212.53C8.53738 219.616 8.40585 228.209 4.32535 235.173L0.686035 241.384C0.236816 242.15 3.05176e-05 243.023 3.05176e-05 243.912V264.188C3.05176e-05 264.917 0.159332 265.636 0.466766 266.297L5.91269 278.001C9.04385 284.73 8.73538 292.557 5.08429 299.019L2.9754 302.751C1.02496 306.203 3.05176e-05 310.1 3.05176e-05 314.065V324C3.05176e-05 326.209 1.79089 328 4.00003 328H423.481C426.837 328 430.132 327.104 433.027 325.405C446.288 317.619 454.445 303.403 454.475 288.025L454.951 45.6846Z" fill="url(#paint0_radial_24_546)"/>
<defs>
<radialGradient id="paint0_radial_24_546" cx="0" cy="0" r="1" gradientUnits="userSpaceOnUse" gradientTransform="translate(76.3114 164) rotate(-180) scale(196.803 194.139)">
<stop stop-color="#3DD4FF"/>
<stop offset="1" stop-color="#0098EA"/>
</radialGradient>
</defs>
</svg>
