<svg width="50" height="50" viewBox="0 0 50 50" fill="none" xmlns="http://www.w3.org/2000/svg">
<rect x="0.5" y="0.5" width="49" height="49" rx="7.5" fill="#0098EA" stroke="#0098EA"/>
<path d="M25.7548 29.6439C25.5099 29.6622 25.2626 29.6713 25.013 29.6713C24.7095 29.6713 24.4094 29.6573 24.1128 29.6311C22.6456 29.5004 21.2239 29.0525 19.9449 28.3181C18.666 27.5837 17.5601 26.5802 16.7029 25.3763C16.6803 25.3439 16.65 25.3178 16.6146 25.3005C16.5793 25.2831 16.5401 25.2751 16.5008 25.2772C16.4616 25.2792 16.4234 25.2912 16.3901 25.3121C16.3567 25.333 16.3291 25.3621 16.31 25.3967L12.1311 32.945C11.9721 33.2367 11.9472 33.5867 12.1149 33.8713C12.2022 34.0125 12.3238 34.129 12.4683 34.2098C12.6128 34.2906 12.7754 34.3331 12.9408 34.3333H17.4679C17.6256 34.3275 17.782 34.364 17.9209 34.4392C18.0599 34.5143 18.1764 34.6254 18.2584 34.7609L20.5022 38.5333C20.5843 38.6733 20.7008 38.7897 20.8406 38.8715C20.9803 38.9532 21.1386 38.9974 21.3002 39C21.645 38.9808 22.0019 38.7556 22.1453 38.44L25.9823 29.9729C25.9989 29.9361 26.0056 29.8957 26.002 29.8555C25.9983 29.8152 25.9844 29.7767 25.9614 29.7435C25.9385 29.7104 25.9074 29.6838 25.8712 29.6663C25.835 29.6488 25.7949 29.6411 25.7548 29.6439Z" fill="white"/>
<path d="M37.8642 32.9263L33.7126 25.3914C33.6934 25.3572 33.666 25.3284 33.6328 25.3077C33.5996 25.287 33.5617 25.2751 33.5227 25.273C33.4837 25.2709 33.4448 25.2787 33.4096 25.2958C33.3744 25.3128 33.3441 25.3385 33.3214 25.3704C32.1797 26.9782 30.6019 28.2219 28.7763 28.9532C28.5522 29.042 28.3708 29.2145 28.2702 29.4345L26.1309 34.1653C26.1033 34.2257 26.0891 34.2914 26.0891 34.3578C26.0891 34.4243 26.1033 34.4899 26.1309 34.5503L27.8877 38.4347C28.0299 38.7503 28.3863 38.9808 28.7305 39C28.8922 38.996 29.0503 38.9503 29.1895 38.8674C29.3287 38.7845 29.4444 38.667 29.5256 38.5263L31.7619 34.7592C31.9296 34.4762 32.2337 34.3316 32.5617 34.3333H37.1334C37.5206 34.3333 37.8137 34.1303 37.946 33.75C37.9925 33.6149 38.0093 33.4713 37.9951 33.3291C37.981 33.1869 37.9363 33.0495 37.8642 32.9263Z" fill="white"/>
<path d="M25.0154 22.2C26.5543 22.2 27.8018 20.9464 27.8018 19.4C27.8018 17.8536 26.5543 16.6 25.0154 16.6C23.4764 16.6 22.2289 17.8536 22.2289 19.4C22.2289 20.9464 23.4764 22.2 25.0154 22.2Z" fill="white"/>
<path d="M25.0154 11C20.4059 11 16.6577 14.7678 16.6577 19.4C16.6577 24.0323 20.4076 27.8 25.0154 27.8C29.6231 27.8 33.3731 24.0317 33.3731 19.4C33.3731 14.7683 29.6243 11 25.0154 11ZM25.0154 24.0667C24.097 24.0667 23.1993 23.793 22.4358 23.2802C21.6722 22.7674 21.0771 22.0386 20.7256 21.1859C20.3742 20.3331 20.2822 19.3948 20.4614 18.4896C20.6406 17.5843 21.0828 16.7528 21.7321 16.1002C22.3815 15.4475 23.2088 15.0031 24.1095 14.823C25.0102 14.6429 25.9438 14.7354 26.7922 15.0886C27.6406 15.4418 28.3658 16.0399 28.876 16.8073C29.3862 17.5748 29.6585 18.477 29.6585 19.4C29.657 20.6372 29.1673 21.8233 28.2969 22.6981C27.4264 23.573 26.2463 24.0651 25.0154 24.0667Z" fill="white"/>
</svg>
