<svg width="61" height="55" viewBox="0 0 61 55" fill="none" xmlns="http://www.w3.org/2000/svg">
<path d="M33.118 55C48.5083 55 61 42.6983 61 27.5001C61 12.3017 48.5083 0 33.118 0C17.7622 0 5.27053 12.3017 5.27053 27.5001H10.5502C10.5502 15.1642 20.6263 5.17964 33.118 5.17964C45.6096 5.17964 55.7203 15.1642 55.7203 27.5001C55.7203 39.8358 45.6096 49.8204 33.118 49.8204C25.7679 49.8204 19.2461 46.3445 15.1741 41.0285C14.208 39.7676 12.7242 39.3928 11.4473 40.1766C10.205 40.9263 9.82548 42.6642 10.8952 43.9932C16.0368 50.7744 24.146 55 33.118 55ZM2.13035 22.184C-0.0436221 22.184 -0.561231 23.6493 0.612013 25.2851L6.75437 33.9065C7.7205 35.2355 9.1699 35.2355 10.1016 33.9065L16.2438 25.2509C17.3827 23.6493 16.865 22.184 14.7256 22.184H2.13035Z" fill="url(#paint0_linear_24_482)"/>
<path d="M24.5207 16.4957C21.4893 16.4957 19.5685 19.7245 21.0941 22.3365L31.2686 39.752C31.9326 40.889 33.5969 40.889 34.2609 39.752L44.4384 22.3351C45.9625 19.7291 44.0401 16.4957 41.0102 16.4957H24.5207ZM31.2611 34.528L29.0446 30.2934L23.6969 20.8495C23.6156 20.7085 23.5736 20.5488 23.5747 20.3865C23.576 20.2242 23.6206 20.0651 23.704 19.9254C23.7875 19.7855 23.9068 19.6699 24.0499 19.5901C24.193 19.5104 24.3549 19.4695 24.5193 19.4712H31.2566V34.531L31.2597 34.528H31.2611ZM41.8281 20.848L36.4834 30.2948L34.2669 34.528V19.4683H41.0071C41.7466 19.4683 42.1812 20.2431 41.8281 20.848Z" fill="url(#paint1_linear_24_482)"/>
<defs>
<linearGradient id="paint0_linear_24_482" x1="30.5" y1="0" x2="30.5" y2="55" gradientUnits="userSpaceOnUse">
<stop stop-color="#0099FF"/>
<stop offset="1" stop-color="#3DD4FF"/>
</linearGradient>
<linearGradient id="paint1_linear_24_482" x1="30.5" y1="0" x2="30.5" y2="55" gradientUnits="userSpaceOnUse">
<stop stop-color="#0099FF"/>
<stop offset="1" stop-color="#3DD4FF"/>
</linearGradient>
</defs>
</svg>
