<svg width="55" height="55" viewBox="0 0 55 55" fill="none" xmlns="http://www.w3.org/2000/svg">
<path d="M27.5 4.23077C40.3503 4.23077 50.7692 14.6497 50.7692 27.5H55C55 12.3115 42.6885 0 27.5 0V4.23077ZM4.23077 27.5C4.23077 14.6497 14.6497 4.23077 27.5 4.23077V0C12.3115 0 0 12.3115 0 27.5H4.23077ZM27.5 50.7692C14.6497 50.7692 4.23077 40.3503 4.23077 27.5H0C0 42.6885 12.3115 55 27.5 55V50.7692ZM50.7692 27.5C50.7692 40.3503 40.3503 50.7692 27.5 50.7692V55C42.6885 55 55 42.6885 55 27.5H50.7692Z" fill="url(#paint0_linear_24_469)"/>
<path d="M25.3022 38.6494V42.0679H29.533V38.6494H25.3022ZM27.364 36.534C27.2597 36.5368 27.1553 36.5396 27.0481 36.5396V40.7704C27.1892 40.7704 27.3302 40.7676 27.4684 40.7648L27.364 36.534ZM32.7738 33.4202C32.7738 34.4694 31.6456 36.534 27.4176 36.534V40.7648C32.8725 40.7648 37.0045 37.7779 37.0045 33.4202H32.7738ZM25.3022 13.1632V16.593H29.533V13.1632H25.3022ZM27.4797 14.4804C27.4627 14.4804 27.4458 14.4776 27.412 14.4776C27.3838 14.4776 27.3415 14.472 27.2963 14.472C27.2061 14.4691 27.0763 14.4691 26.9269 14.4776L27.1722 18.6999C27.1384 18.6999 27.1469 18.7027 27.1722 18.6999C27.1892 18.6999 27.2089 18.7055 27.2399 18.7055C27.2681 18.7055 27.3104 18.7084 27.3556 18.7084L27.4797 14.4804ZM36.6181 20.6376C36.0427 18.2571 33.3181 14.6496 27.4797 14.4804L27.3556 18.7084C31.2366 18.8212 32.3648 21.0579 32.5058 21.6332L36.6181 20.6376ZM27.0481 36.5396C24.3827 36.5396 22.6171 34.4666 22.1038 33.4173L18.3045 35.2761C19.1958 37.0981 22.132 40.7704 27.0481 40.7704V36.5396ZM26.6871 29.4432C29.5894 29.9453 31.1012 30.5686 31.8797 31.1948C32.4804 31.6799 32.7738 32.2609 32.7738 33.4202H37.0045C37.0045 31.3048 36.3586 29.3699 34.531 27.9004C32.8781 26.572 30.4694 25.8048 27.4092 25.2745L26.6871 29.4432ZM18.5979 22.0507C18.5979 22.5189 18.5866 24.135 19.774 25.7935C20.9756 27.4717 23.1333 28.8284 26.6871 29.4432L27.4092 25.2745C24.5971 24.7894 23.5845 23.8502 23.2122 23.3284C22.823 22.7868 22.8286 22.2989 22.8286 22.0507H18.5979ZM26.9269 14.4776C23.232 14.692 20.9727 16.1445 19.7458 18.0371C18.6035 19.8027 18.5979 21.5966 18.5979 22.0507H22.8286C22.8286 21.7855 22.8456 21.0353 23.2969 20.3386C23.6635 19.7717 24.5745 18.8522 27.1722 18.6999L26.9269 14.4776ZM25.3022 42.0679C25.3022 43.2355 26.2499 44.1832 27.4176 44.1832C28.5853 44.1832 29.533 43.2355 29.533 42.0679H25.3022ZM27.4176 38.6494V36.534C27.4007 36.534 27.381 36.534 27.364 36.534L27.4176 38.6494ZM29.533 13.1632C29.533 11.9955 28.5853 11.0479 27.4176 11.0479C26.2499 11.0479 25.3022 11.9955 25.3022 13.1632H29.533ZM22.1038 33.4173C21.5904 32.3681 20.324 31.9337 19.2748 32.4471C18.2256 32.9604 17.7912 34.2268 18.3045 35.2761L22.1038 33.4173ZM32.5058 21.6332C32.7794 22.7699 33.9245 23.4666 35.0612 23.193C36.1979 22.9194 36.8917 21.7743 36.6181 20.6376L32.5058 21.6332Z" fill="url(#paint1_linear_24_469)"/>
<defs>
<linearGradient id="paint0_linear_24_469" x1="43.5" y1="0.999998" x2="8.5" y2="50.5" gradientUnits="userSpaceOnUse">
<stop stop-color="#0097EA"/>
<stop offset="1" stop-color="#3DD4FF"/>
</linearGradient>
<linearGradient id="paint1_linear_24_469" x1="33.0494" y1="11.6503" x2="11.1863" y2="29.3017" gradientUnits="userSpaceOnUse">
<stop stop-color="#0097EA"/>
<stop offset="1" stop-color="#3DD4FF"/>
</linearGradient>
</defs>
</svg>
