<svg width="2" height="198" viewBox="0 0 2 198" fill="none" xmlns="http://www.w3.org/2000/svg">
<mask id="path-1-inside-1_2003_377" fill="white">
<path d="M2 0V198H0V0H2Z"/>
</mask>
<path d="M2 198H3V192.5H2H1V198H2ZM2 181.5H3V170.5H2H1V181.5H2ZM2 159.5H3V148.5H2H1V159.5H2ZM2 137.5H3V126.5H2H1V137.5H2ZM2 115.5H3V104.5H2H1V115.5H2ZM2 93.5H3V82.5H2H1V93.5H2ZM2 71.5H3V60.5H2H1V71.5H2ZM2 49.5H3V38.5H2H1V49.5H2ZM2 27.5H3V16.5H2H1V27.5H2ZM2 5.5H3V0H2H1V5.5H2ZM2 198H4V192.5H2H0V198H2ZM2 181.5H4V170.5H2H0V181.5H2ZM2 159.5H4V148.5H2H0V159.5H2ZM2 137.5H4V126.5H2H0V137.5H2ZM2 115.5H4V104.5H2H0V115.5H2ZM2 93.5H4V82.5H2H0V93.5H2ZM2 71.5H4V60.5H2H0V71.5H2ZM2 49.5H4V38.5H2H0V49.5H2ZM2 27.5H4V16.5H2H0V27.5H2ZM2 5.5H4V0H2H0V5.5H2Z" fill="white" fill-opacity="0.9" mask="url(#path-1-inside-1_2003_377)"/>
</svg>
