<svg width="393" height="272" viewBox="0 0 393 272" fill="none" xmlns="http://www.w3.org/2000/svg">
<g filter="url(#filter0_d_2066_182)">
<path d="M19 81C19 68.2975 29.2975 58 42 58H118.734C120.368 58 121.945 58.6023 123.163 59.6916L123.386 59.8912C125.845 62.0898 129.581 62.0284 131.966 59.7502C133.141 58.6268 134.705 58 136.331 58H251.343C253.036 58 254.674 58.597 255.969 59.686L256.356 60.0112C258.918 62.1654 262.686 62.0669 265.132 59.7817C266.358 58.6368 267.973 58 269.65 58H367C368.657 58 370 59.3431 370 61V63.7932C370 64.2121 369.912 64.6247 369.757 65.014C369.298 66.169 368.348 68.8066 368.348 70.8571C368.348 72.9077 369.298 75.5453 369.757 76.7003C369.912 77.0896 370 77.5021 370 77.9211V83.3047C370 83.5752 369.948 83.8431 369.846 84.0937L369.753 84.3227C368.234 88.0543 368.234 92.2314 369.753 95.963C369.916 96.3648 370 96.7945 370 97.2283V102.364C370 102.784 369.919 103.2 369.76 103.589L369.612 103.955C368.188 107.455 368.236 111.382 369.746 114.846C369.914 115.23 370 115.645 370 116.064V120.813C370 121.219 369.919 121.622 369.761 121.996L369.609 122.358C368.191 125.728 368.241 129.536 369.746 132.868C369.914 133.237 370 133.638 370 134.044V139.826C370 140.272 369.923 140.715 369.772 141.134L368.835 143.747C367.903 146.341 367.998 149.193 369.099 151.72C369.693 153.082 370 154.553 370 156.04V157.174C370 158.735 368.735 160 367.174 160H269.518C267.91 160 266.347 159.473 265.068 158.5C262.548 156.581 259.081 156.494 256.468 158.285L256.029 158.585C254.683 159.507 253.091 160 251.46 160H136.201C134.643 160 133.13 159.481 131.901 158.524C129.438 156.607 126.003 156.552 123.48 158.391L123.225 158.577C121.956 159.502 120.426 160 118.855 160H42C29.2975 160 19 149.703 19 137V81Z" fill="url(#paint0_radial_2066_182)"/>
<path d="M42 58.5H118.734C120.245 58.5001 121.704 59.0571 122.83 60.0645L123.053 60.2637C125.706 62.6362 129.737 62.5698 132.311 60.1113C133.393 59.0769 134.834 58.5001 136.331 58.5H251.344C252.918 58.5001 254.442 59.0553 255.647 60.0684L256.034 60.3936C258.79 62.7104 262.842 62.605 265.474 60.1475C266.607 59.089 268.1 58.5 269.65 58.5H367C368.381 58.5 369.5 59.6193 369.5 61V63.793C369.5 64.1416 369.427 64.4918 369.293 64.8291C368.836 65.98 367.849 68.6999 367.849 70.8574C367.849 73.0149 368.836 75.7339 369.293 76.8848C369.427 77.2221 369.5 77.5722 369.5 77.9209V83.3047C369.5 83.4591 369.478 83.6124 369.434 83.7598L369.383 83.9053L369.289 84.1348C367.722 87.987 367.722 92.2992 369.289 96.1514C369.428 96.4933 369.5 96.8593 369.5 97.2285V102.363C369.5 102.719 369.431 103.072 369.297 103.401L369.148 103.767C367.674 107.392 367.724 111.458 369.288 115.046C369.428 115.367 369.5 115.714 369.5 116.064V120.812C369.5 121.153 369.432 121.489 369.3 121.803L369.148 122.164C367.676 125.662 367.728 129.615 369.291 133.073C369.429 133.378 369.5 133.709 369.5 134.044V139.826C369.5 140.214 369.433 140.6 369.302 140.965L368.364 143.578C367.39 146.292 367.489 149.276 368.641 151.919C369.207 153.219 369.5 154.622 369.5 156.04V157.174C369.5 158.459 368.458 159.5 367.174 159.5H269.518C268.02 159.5 266.563 159.009 265.371 158.102C262.679 156.053 258.977 155.96 256.186 157.872L255.746 158.173C254.484 159.037 252.99 159.5 251.461 159.5H136.2C134.754 159.5 133.35 159.018 132.209 158.13C129.57 156.076 125.888 156.017 123.186 157.986L122.931 158.173C121.747 159.035 120.32 159.5 118.855 159.5H42C29.5736 159.5 19.5 149.426 19.5 137V81C19.5 68.5736 29.5736 58.5 42 58.5Z" stroke="#01A4F5"/>
</g>
<defs>
<filter id="filter0_d_2066_182" x="-65.6" y="0.400002" width="520.2" height="271.2" filterUnits="userSpaceOnUse" color-interpolation-filters="sRGB">
<feFlood flood-opacity="0" result="BackgroundImageFix"/>
<feColorMatrix in="SourceAlpha" type="matrix" values="0 0 0 0 0 0 0 0 0 0 0 0 0 0 0 0 0 0 127 0" result="hardAlpha"/>
<feOffset dy="27"/>
<feGaussianBlur stdDeviation="42.3"/>
<feComposite in2="hardAlpha" operator="out"/>
<feColorMatrix type="matrix" values="0 0 0 0 0.239216 0 0 0 0 0.831373 0 0 0 0 1 0 0 0 0.29 0"/>
<feBlend mode="normal" in2="BackgroundImageFix" result="effect1_dropShadow_2066_182"/>
<feBlend mode="normal" in="SourceGraphic" in2="effect1_dropShadow_2066_182" result="shape"/>
</filter>
<radialGradient id="paint0_radial_2066_182" cx="0" cy="0" r="1" gradientTransform="matrix(132.004 26.7857 -14.1328 168.797 237.996 82.2143)" gradientUnits="userSpaceOnUse">
<stop stop-color="#3DD4FF"/>
<stop offset="1" stop-color="#0098EA"/>
</radialGradient>
</defs>
</svg>
