<svg width="351" height="102" viewBox="0 0 351 102" fill="none" xmlns="http://www.w3.org/2000/svg">
<path d="M23 0.5H99.7344C101.245 0.500058 102.704 1.0571 103.83 2.06445L104.053 2.26367C106.706 4.63625 110.737 4.56981 113.311 2.11133C114.393 1.07693 115.834 0.500082 117.331 0.5H232.344C233.918 0.500083 235.442 1.05528 236.647 2.06836L237.034 2.39355C239.79 4.71043 243.842 4.60503 246.474 2.14746C247.607 1.08904 249.1 0.5 250.65 0.5H348C349.381 0.5 350.5 1.61929 350.5 3V5.79297C350.5 6.14158 350.427 6.49183 350.293 6.8291C349.836 7.97995 348.849 10.6999 348.849 12.8574C348.849 15.0149 349.836 17.7339 350.293 18.8848C350.427 19.2221 350.5 19.5722 350.5 19.9209V25.3047C350.5 25.4591 350.478 25.6124 350.434 25.7598L350.383 25.9053L350.289 26.1348C348.722 29.987 348.722 34.2992 350.289 38.1514C350.428 38.4933 350.5 38.8593 350.5 39.2285V44.3633C350.5 44.719 350.431 45.0719 350.297 45.4014L350.148 45.7666C348.674 49.3916 348.724 53.4584 350.288 57.0459C350.428 57.3671 350.5 57.714 350.5 58.0645V62.8125C350.5 63.1525 350.432 63.4894 350.3 63.8027L350.148 64.1641C348.676 67.662 348.728 71.615 350.291 75.0732C350.429 75.3782 350.5 75.7093 350.5 76.0439V81.8262C350.5 82.2143 350.433 82.5996 350.302 82.9648L349.364 85.5781C348.39 88.2921 348.489 91.2756 349.641 93.9189C350.207 95.2187 350.5 96.6222 350.5 98.04V99.1738C350.5 100.459 349.458 101.5 348.174 101.5H250.518C249.02 101.5 247.563 101.009 246.371 100.102C243.679 98.0527 239.977 97.9602 237.186 99.8721L236.746 100.173C235.484 101.037 233.99 101.5 232.461 101.5H117.2C115.754 101.5 114.35 101.018 113.209 100.13C110.57 98.0756 106.888 98.0167 104.186 99.9863L103.931 100.173C102.747 101.035 101.32 101.5 99.8555 101.5H23C10.5736 101.5 0.5 91.4264 0.5 79V23C0.500001 10.5736 10.5736 0.5 23 0.5Z" fill="url(#paint0_radial_2066_182)" stroke="#01A4F5"/>
<defs>
<radialGradient id="paint0_radial_2066_182" cx="0" cy="0" r="1" gradientTransform="matrix(132.004 26.7857 -14.1328 168.797 218.996 24.2143)" gradientUnits="userSpaceOnUse">
<stop stop-color="#3DD4FF"/>
<stop offset="1" stop-color="#0098EA"/>
</radialGradient>
</defs>
</svg>
